<svg xmlns="http://www.w3.org/2000/svg" width="197.161" height="232.102" viewBox="0 0 197.161 232.102">
  <g id="Grupo_48" data-name="Grupo 48" transform="translate(-1403 -7424.898)">
    <path id="Trazado_437" data-name="Trazado 437" d="M2665.308,7473.407v175.229h91.565v-23.5h-64.933V7497.563h64.933v-24.156Z" transform="translate(-1204 -25)" fill="#c21220"/>
    <path id="Icon_ionic-ios-arrow-back" data-name="Icon ionic-ios-arrow-back" d="M1.584,4.595,5.063,1.12a.657.657,0,1,0-.93-.928L.191,4.13a.656.656,0,0,0-.019.906L4.129,9a.657.657,0,0,0,.93-.928Z" transform="translate(1461 7541.738) rotate(180)" fill="#041129"/>
    <text id="tw" transform="translate(1499 7516)" fill="#041129" stroke="rgba(0,0,0,0)" stroke-width="1" font-size="13" font-family="Jura" font-weight="700"><tspan x="0" y="13">tw</tspan></text>
    <line id="Línea_71" data-name="Línea 71" x1="22.941" transform="translate(1489.559 7536.962)" fill="none" stroke="#041129" stroke-width="1"/>
    <path id="Icon_ionic-ios-arrow-back-2" data-name="Icon ionic-ios-arrow-back" d="M1.584,4.595,5.063,1.12a.657.657,0,1,0-.93-.928L.191,4.13a.656.656,0,0,0-.019.906L4.129,9a.657.657,0,0,0,.93-.928Z" transform="translate(1488.5 7532.546)" fill="#041129"/>
    <line id="Línea_72" data-name="Línea 72" x1="22.941" transform="translate(1436.559 7536.962)" fill="none" stroke="#041129" stroke-width="1"/>
    <path id="Icon_ionic-ios-arrow-back-3" data-name="Icon ionic-ios-arrow-back" d="M1.584,4.595,5.063,1.12a.657.657,0,1,0-.93-.928L.191,4.13a.656.656,0,0,0-.019.906L4.129,9a.657.657,0,0,0,.93-.928Z" transform="translate(1576.399 7472.398) rotate(90)" fill="#041129"/>
    <text id="tf" transform="translate(1580.161 7451.898)" fill="#041129" stroke="rgba(0,0,0,0)" stroke-width="1" font-size="13" font-family="Jura" font-weight="700"><tspan x="0" y="13">tf</tspan></text>
    <line id="Línea_73" data-name="Línea 73" y2="50.601" transform="translate(1571.623 7424.898)" fill="none" stroke="#041129" stroke-width="1"/>
    <path id="Icon_ionic-ios-arrow-back-4" data-name="Icon ionic-ios-arrow-back" d="M1.584,4.595,5.063,1.12a.657.657,0,1,0-.93-.928L.191,4.13a.656.656,0,0,0-.019.906L4.129,9a.657.657,0,0,0,.93-.928Z" transform="translate(1567.207 7448.898) rotate(-90)" fill="#041129"/>
    <line id="Línea_75" data-name="Línea 75" x1="22.941" transform="translate(1571.623 7496.84) rotate(-90)" fill="none" stroke="#041129" stroke-width="1"/>
    <line id="Línea_77" data-name="Línea 77" x2="89.749" transform="translate(1462.031 7638.322)" fill="none" stroke="#041129" stroke-width="1"/>
    <path id="Icon_ionic-ios-arrow-back-5" data-name="Icon ionic-ios-arrow-back" d="M1.635,4.6,5.226,1.12a.64.64,0,0,0,0-.928.7.7,0,0,0-.96,0L.2,4.13a.641.641,0,0,0-.02.906L4.263,9a.7.7,0,0,0,.96,0,.64.64,0,0,0,0-.928Z" transform="translate(1552.874 7642.739) rotate(180)" fill="#041129"/>
    <path id="Icon_ionic-ios-arrow-back-6" data-name="Icon ionic-ios-arrow-back" d="M1.582,4.6,5.054,1.12A.656.656,0,0,0,4.125.192L.191,4.13a.656.656,0,0,0-.019.906L4.123,9a.656.656,0,1,0,.929-.928Z" transform="translate(1461.308 7633.547)" fill="#041129"/>
    <text id="b" transform="translate(1504 7640)" fill="#041129" stroke="rgba(0,0,0,0)" stroke-width="1" font-size="13" font-family="Jura" font-weight="700"><tspan x="0" y="13">b</tspan></text>
    <line id="Línea_79" data-name="Línea 79" x2="173.337" transform="translate(1417.583 7622.911) rotate(-90)" fill="none" stroke="#041129" stroke-width="1"/>
    <path id="Icon_ionic-ios-arrow-back-7" data-name="Icon ionic-ios-arrow-back" d="M1.584,4.6,5.063,1.12a.657.657,0,0,0-.93-.928L.191,4.13a.656.656,0,0,0-.019.906L4.129,9a.657.657,0,0,0,.93-.928Z" transform="translate(1422 7448.516) rotate(90)" fill="#041129"/>
    <path id="Icon_ionic-ios-arrow-back-8" data-name="Icon ionic-ios-arrow-back" d="M1.584,4.6,5.063,1.12a.657.657,0,0,0-.93-.928L.191,4.13a.656.656,0,0,0-.019.906L4.129,9a.657.657,0,0,0,.93-.928Z" transform="translate(1412.807 7623.636) rotate(-90)" fill="#041129"/>
    <text id="h" transform="translate(1404 7525)" fill="#041129" stroke="rgba(0,0,0,0)" stroke-width="1" font-size="13" font-family="Jura" font-weight="700"><tspan x="0" y="13">h</tspan></text>
  </g>
</svg>
