<svg id="Capa_1" data-name="Capa 1" xmlns="http://www.w3.org/2000/svg" viewBox="0 0 909.74 201.95"><defs><style>.cls-1{fill:#cf282c;}.cls-2{fill:none;stroke:#cf282c;stroke-miterlimit:10;stroke-width:7px;}</style></defs><title>Civilus</title><path class="cls-1" d="M243.88,115a17.61,17.61,0,0,1-9.16-2.44,18.44,18.44,0,0,1-6.58-6.58,17.56,17.56,0,0,1-2.45-9.17V32.47a17.55,17.55,0,0,1,2.45-9.16,18.44,18.44,0,0,1,6.58-6.58,17.62,17.62,0,0,1,9.16-2.45h82.29V29.4H246a5,5,0,0,0-5.18,5.17V94.75A5,5,0,0,0,246,99.93h80.19V115Z"/><path class="cls-1" d="M347.3,115V14.28h15.12V115Z"/><path class="cls-1" d="M440.09,115,381.73,14.28h17.63L447.65,98l48-83.69h17.63L455.06,115Z"/><path class="cls-1" d="M531.61,115V14.28h15.12V115Z"/><path class="cls-1" d="M569.12,115V14.14h15.11V99.93h85.65V115Z"/><path class="cls-1" d="M693.74,112.6a18.49,18.49,0,0,1-6.57-6.58,17.56,17.56,0,0,1-2.45-9.17V14.28h15.11V96.43a3.59,3.59,0,0,0,3.5,3.5h63.4a3.28,3.28,0,0,0,2.51-1.05,3.45,3.45,0,0,0,1-2.45V14.28h15.25V96.85A17.66,17.66,0,0,1,783,106a18.32,18.32,0,0,1-6.65,6.58,17.73,17.73,0,0,1-9.09,2.44H702.91A17.65,17.65,0,0,1,693.74,112.6Z"/><path class="cls-1" d="M825.5,115a17.75,17.75,0,0,1-9.09-2.44,18.32,18.32,0,0,1-6.65-6.58,17.66,17.66,0,0,1-2.45-9.17V91h15.12v5.46a3.59,3.59,0,0,0,3.49,3.5h63.54a3.13,3.13,0,0,0,2.38-1.05,3.48,3.48,0,0,0,1-2.45V75.72a3.19,3.19,0,0,0-1-2.45,3.4,3.4,0,0,0-2.38-.91h-64a17.35,17.35,0,0,1-9.09-2.52,18.83,18.83,0,0,1-6.65-6.65A17.62,17.62,0,0,1,807.31,54V32.47a17.65,17.65,0,0,1,2.45-9.16,18.32,18.32,0,0,1,6.65-6.58,17.76,17.76,0,0,1,9.09-2.45h64.38a17.77,17.77,0,0,1,9.1,2.45,18.29,18.29,0,0,1,6.64,6.58,17.55,17.55,0,0,1,2.45,9.16v5.88H892.82V32.89a3.47,3.47,0,0,0-1-2.44,3.13,3.13,0,0,0-2.38-1.05H825.92a3.59,3.59,0,0,0-3.49,3.49V53.61a3.08,3.08,0,0,0,1.05,2.45,3.62,3.62,0,0,0,2.44.91h64a17.45,17.45,0,0,1,9.1,2.51,18.88,18.88,0,0,1,6.64,6.65,17.59,17.59,0,0,1,2.45,9.17V96.85a17.56,17.56,0,0,1-2.45,9.17A18.29,18.29,0,0,1,899,112.6a17.76,17.76,0,0,1-9.1,2.44Z"/><rect class="cls-2" x="83.47" y="146.5" width="34.22" height="34.22" transform="translate(287.4 208.18) rotate(135)"/><polyline class="cls-2" points="69 132.08 100.56 163.59 163.61 100.54 100.54 37.47 37.47 100.54 69 132.08 57.34 143.74 14.14 100.54 100.54 14.14 187.02 100.62 143.82 143.82 131.73 132.43"/><path class="cls-1" d="M87.1,115.59a6.75,6.75,0,0,1-3.52-.94,7.08,7.08,0,0,1-2.52-2.52,6.81,6.81,0,0,1-.94-3.51V83.94a6.84,6.84,0,0,1,.94-3.52,7.24,7.24,0,0,1,2.52-2.52A6.84,6.84,0,0,1,87.1,77h31.55v5.8H87.9a1.91,1.91,0,0,0-1.42.56,2,2,0,0,0-.56,1.42v23.07a1.93,1.93,0,0,0,2,2h30.75v5.79Z"/><path class="cls-1" d="M232.43,175.46a5.21,5.21,0,0,1-5.23-5.23V149.3a5.08,5.08,0,0,1,.7-2.63,5.21,5.21,0,0,1,4.53-2.6H258.5v3.53H232.43a1.72,1.72,0,0,0-1.7,1.7v20.93a1.71,1.71,0,0,0,1.7,1.7H258.5v3.53Z"/><path class="cls-1" d="M265,145.47v-3.58h3.57v3.58Zm0,30V150.18h3.57v25.28Z"/><path class="cls-1" d="M288.66,175.46l-14-25.28h4.19L290.76,172l11.85-21.79h4.19l-14,25.28Z"/><path class="cls-1" d="M312.68,145.47v-3.58h3.58v3.58Zm0,30V150.18h3.58v25.28Z"/><path class="cls-1" d="M326.57,174.74a5.52,5.52,0,0,1-1.92-1.92,5,5,0,0,1-.72-2.64V141.89h3.57v28.29a1.71,1.71,0,0,0,1.7,1.7h4.27v3.58H329.2A5,5,0,0,1,326.57,174.74Z"/><path class="cls-1" d="M353.57,175.46V144.07h28.64v3.53H357.1V158h20.18v3.57H357.1v10.38h25.11v3.53Z"/><path class="cls-1" d="M389,175.46V150.18h20.49a5.12,5.12,0,0,1,2.64.71,5.52,5.52,0,0,1,1.92,1.92,5,5,0,0,1,.72,2.64v20h-3.58v-20a1.71,1.71,0,0,0-1.7-1.7H394.28a1.73,1.73,0,0,0-1.22.5,1.6,1.6,0,0,0-.52,1.2v20Z"/><path class="cls-1" d="M425.58,185.44v-3.62h15.78a1.71,1.71,0,0,0,1.7-1.7v-4.66H426.19a5,5,0,0,1-2.64-.72,5.49,5.49,0,0,1-1.91-1.92,5,5,0,0,1-.72-2.64V155.45a5,5,0,0,1,.72-2.64,5.49,5.49,0,0,1,1.91-1.92,5.12,5.12,0,0,1,2.64-.71h15.17a5.19,5.19,0,0,1,2.68.71,5.38,5.38,0,0,1,1.9,1.92,5.2,5.2,0,0,1,.69,2.64v24.67a5.27,5.27,0,0,1-.69,2.68,5.38,5.38,0,0,1-1.9,1.92,5.1,5.1,0,0,1-2.68.72Zm.61-13.56h15.17a1.71,1.71,0,0,0,1.7-1.7V155.45a1.71,1.71,0,0,0-1.7-1.7H426.19a1.71,1.71,0,0,0-1.7,1.7v14.73a1.71,1.71,0,0,0,1.7,1.7Z"/><path class="cls-1" d="M453.35,145.47v-3.58h3.57v3.58Zm0,30V150.18h3.57v25.28Z"/><path class="cls-1" d="M464,175.46V150.18h20.48a5.12,5.12,0,0,1,2.64.71,5.52,5.52,0,0,1,1.92,1.92,5,5,0,0,1,.72,2.64v20h-3.58v-20a1.62,1.62,0,0,0-.5-1.2,1.64,1.64,0,0,0-1.2-.5H469.35a1.7,1.7,0,0,0-1.22.5,1.61,1.61,0,0,0-.53,1.2v20Z"/><path class="cls-1" d="M499.05,174.74a5.52,5.52,0,0,1-1.92-1.92,5.13,5.13,0,0,1-.72-2.64V155.45a5.13,5.13,0,0,1,.72-2.64,5.52,5.52,0,0,1,1.92-1.92,5.12,5.12,0,0,1,2.64-.71h15.17a5.19,5.19,0,0,1,2.68.71,5.52,5.52,0,0,1,1.92,1.92,5,5,0,0,1,.72,2.64v9.15H500v5.58a1.64,1.64,0,0,0,.5,1.2,1.6,1.6,0,0,0,1.2.5h20.49v3.58H501.69A5,5,0,0,1,499.05,174.74ZM500,161h18.57v-5.58a1.71,1.71,0,0,0-1.7-1.7H501.69a1.71,1.71,0,0,0-1.7,1.7Z"/><path class="cls-1" d="M530.74,174.74a5.52,5.52,0,0,1-1.92-1.92,5,5,0,0,1-.71-2.64V155.45a5,5,0,0,1,.71-2.64,5.52,5.52,0,0,1,1.92-1.92,5.12,5.12,0,0,1,2.64-.71h15.17a5.19,5.19,0,0,1,2.68.71,5.52,5.52,0,0,1,1.92,1.92,5,5,0,0,1,.72,2.64v9.15H531.68v5.58a1.64,1.64,0,0,0,.5,1.2,1.6,1.6,0,0,0,1.2.5h20.49v3.58H533.38A5,5,0,0,1,530.74,174.74Zm.94-13.71h18.57v-5.58a1.71,1.71,0,0,0-1.7-1.7H533.38a1.71,1.71,0,0,0-1.7,1.7Z"/><path class="cls-1" d="M560.27,175.46v-20a5,5,0,0,1,.72-2.64,5.52,5.52,0,0,1,1.92-1.92,5.12,5.12,0,0,1,2.64-.71h14.21v3.57H565.55a1.71,1.71,0,0,0-1.7,1.7v20Z"/><path class="cls-1" d="M584.77,145.47v-3.58h3.58v3.58Zm0,30V150.18h3.58v25.28Z"/><path class="cls-1" d="M595.45,175.46V150.18h20.49a5.12,5.12,0,0,1,2.64.71,5.52,5.52,0,0,1,1.92,1.92,5.12,5.12,0,0,1,.71,2.64v20h-3.57v-20a1.71,1.71,0,0,0-1.7-1.7H600.77a1.72,1.72,0,0,0-1.22.5,1.6,1.6,0,0,0-.52,1.2v20Z"/><path class="cls-1" d="M632.07,185.44v-3.62h15.78a1.71,1.71,0,0,0,1.7-1.7v-4.66H632.68a5,5,0,0,1-2.64-.72,5.52,5.52,0,0,1-1.92-1.92,5,5,0,0,1-.72-2.64V155.45a5,5,0,0,1,.72-2.64,5.52,5.52,0,0,1,1.92-1.92,5.12,5.12,0,0,1,2.64-.71h15.17a5.19,5.19,0,0,1,2.68.71,5.38,5.38,0,0,1,1.9,1.92,5.2,5.2,0,0,1,.69,2.64v24.67a5.27,5.27,0,0,1-.69,2.68,5.38,5.38,0,0,1-1.9,1.92,5.1,5.1,0,0,1-2.68.72Zm.61-13.56h15.17a1.71,1.71,0,0,0,1.7-1.7V155.45a1.71,1.71,0,0,0-1.7-1.7H632.68a1.64,1.64,0,0,0-1.2.5,1.62,1.62,0,0,0-.5,1.2v14.73a1.71,1.71,0,0,0,1.7,1.7Z"/><path class="cls-1" d="M679.28,175.46a5.11,5.11,0,0,1-2.64-.7,5.21,5.21,0,0,1-2.6-4.53V149.3a5.17,5.17,0,0,1,.7-2.63,5.21,5.21,0,0,1,4.54-2.6h26.06v3.53H679.28a1.72,1.72,0,0,0-1.7,1.7v20.93a1.71,1.71,0,0,0,1.7,1.7h26.06v3.53Z"/><path class="cls-1" d="M714.48,174.74a5.52,5.52,0,0,1-1.92-1.92,5,5,0,0,1-.72-2.64V155.45a5,5,0,0,1,.72-2.64,5.52,5.52,0,0,1,1.92-1.92,5.06,5.06,0,0,1,2.63-.71h15.17a5.19,5.19,0,0,1,2.68.71,5.52,5.52,0,0,1,1.92,1.92,5,5,0,0,1,.72,2.64v14.73a5,5,0,0,1-.72,2.64,5.52,5.52,0,0,1-1.92,1.92,5.1,5.1,0,0,1-2.68.72H717.11A5,5,0,0,1,714.48,174.74Zm2.63-2.86h15.17a1.6,1.6,0,0,0,1.2-.5,1.64,1.64,0,0,0,.5-1.2V155.45a1.71,1.71,0,0,0-1.7-1.7H717.11a1.71,1.71,0,0,0-1.7,1.7v14.73a1.71,1.71,0,0,0,1.7,1.7Z"/><path class="cls-1" d="M744.31,175.46V150.18H777.7a5.19,5.19,0,0,1,2.68.71,5.3,5.3,0,0,1,1.9,1.92,5.21,5.21,0,0,1,.7,2.64v20h-3.53v-20a1.61,1.61,0,0,0-.53-1.2,1.7,1.7,0,0,0-1.22-.5H767.2a1.64,1.64,0,0,0-1.2.5,1.62,1.62,0,0,0-.5,1.2v20h-3.62v-20a1.71,1.71,0,0,0-1.7-1.7H749.63a1.71,1.71,0,0,0-1.7,1.7v20Z"/><path class="cls-1" d="M789.12,185.48v-35.3h20.49a5.12,5.12,0,0,1,2.64.71,5.52,5.52,0,0,1,1.92,1.92,5,5,0,0,1,.72,2.64v14.73a5,5,0,0,1-.72,2.64,5.52,5.52,0,0,1-1.92,1.92,5,5,0,0,1-2.64.72H792.7v10Zm5.32-13.6h15.17a1.6,1.6,0,0,0,1.2-.5,1.64,1.64,0,0,0,.5-1.2V155.45a1.71,1.71,0,0,0-1.7-1.7H794.44a1.73,1.73,0,0,0-1.22.5,1.6,1.6,0,0,0-.52,1.2v14.73a1.58,1.58,0,0,0,.52,1.2A1.69,1.69,0,0,0,794.44,171.88Z"/><path class="cls-1" d="M825.44,175.46a5,5,0,0,1-2.64-.72,5.52,5.52,0,0,1-1.92-1.92,5,5,0,0,1-.72-2.64V161H842.3v-5.58a1.62,1.62,0,0,0-.5-1.2,1.64,1.64,0,0,0-1.2-.5H820.16v-3.57H840.6a5.16,5.16,0,0,1,2.68.71,5.52,5.52,0,0,1,1.92,1.92,5,5,0,0,1,.72,2.64v20Zm0-3.58H842.3V164.6H823.73v5.58a1.72,1.72,0,0,0,1.71,1.7Z"/><path class="cls-1" d="M852,175.46V150.18h20.49a5.12,5.12,0,0,1,2.64.71,5.52,5.52,0,0,1,1.92,1.92,5,5,0,0,1,.72,2.64v20h-3.58v-20a1.71,1.71,0,0,0-1.7-1.7H857.34a1.73,1.73,0,0,0-1.22.5,1.6,1.6,0,0,0-.52,1.2v20Z"/><path class="cls-1" d="M888.68,185.48v-3.61h15.78a1.72,1.72,0,0,0,1.7-1.7v-4.71H889.29a5,5,0,0,1-2.63-.72,5.52,5.52,0,0,1-1.92-1.92,5,5,0,0,1-.72-2.64V150.26h3.57v19.92a1.72,1.72,0,0,0,1.7,1.7h15.17a1.71,1.71,0,0,0,1.7-1.7V150.26h3.58v29.91a5.21,5.21,0,0,1-.7,2.68,5.27,5.27,0,0,1-1.9,1.91,5.07,5.07,0,0,1-2.68.72Z"/></svg>