<svg id="Capa_1" data-name="Capa 1" xmlns="http://www.w3.org/2000/svg" viewBox="0 0 570.62 113.55"><defs><style>.cls-1{fill:#151f35;}.cls-2{fill:#e62237;}</style></defs><title>CivilusSVG</title><path class="cls-1" d="M132.94,66.32a11.48,11.48,0,0,1-6-1.61,12.19,12.19,0,0,1-4.33-4.32,11.62,11.62,0,0,1-1.61-6V12.05a11.57,11.57,0,0,1,1.61-6,12.22,12.22,0,0,1,4.33-4.33,11.57,11.57,0,0,1,6-1.61H187V10H134.32a3.28,3.28,0,0,0-3.4,3.4V53a3.3,3.3,0,0,0,3.4,3.4H187v9.93Z"/><path class="cls-1" d="M200.92,66.32V.09h9.94V66.32Z"/><path class="cls-1" d="M261.91,66.32,223.55.09h11.59l31.74,55,31.55-55H310L271.75,66.32Z"/><path class="cls-1" d="M322.07,66.32V.09H332V66.32Z"/><path class="cls-1" d="M346.73,66.32V0h9.93V56.39H413v9.93Z"/><path class="cls-1" d="M428.64,64.71a12.08,12.08,0,0,1-4.32-4.32,11.53,11.53,0,0,1-1.61-6V.09h9.93v54a2.36,2.36,0,0,0,2.3,2.3h41.68a2.16,2.16,0,0,0,1.65-.69,2.28,2.28,0,0,0,.64-1.61V.09h10V54.37a11.62,11.62,0,0,1-1.61,6A12,12,0,0,1,483,64.71a11.59,11.59,0,0,1-6,1.61H434.67A11.54,11.54,0,0,1,428.64,64.71Z"/><path class="cls-1" d="M515.25,66.32a11.59,11.59,0,0,1-6-1.61,12,12,0,0,1-4.37-4.32,11.62,11.62,0,0,1-1.61-6V50.5h9.94v3.59a2.36,2.36,0,0,0,2.3,2.3h41.76a2.06,2.06,0,0,0,1.56-.69,2.29,2.29,0,0,0,.65-1.61V40.48a2.09,2.09,0,0,0-.65-1.61,2.21,2.21,0,0,0-1.56-.6h-42a11.36,11.36,0,0,1-6-1.66,12.36,12.36,0,0,1-4.37-4.37,11.62,11.62,0,0,1-1.61-6V12.05a11.57,11.57,0,0,1,1.61-6,12,12,0,0,1,4.37-4.33,11.69,11.69,0,0,1,6-1.61h42.31a11.69,11.69,0,0,1,6,1.61A12,12,0,0,1,567.91,6a11.48,11.48,0,0,1,1.61,6v3.86h-10V12.33a2.28,2.28,0,0,0-.65-1.61,2.06,2.06,0,0,0-1.56-.69H515.53a2.36,2.36,0,0,0-2.3,2.3V25.94a2,2,0,0,0,.69,1.61,2.37,2.37,0,0,0,1.61.6h42a11.44,11.44,0,0,1,6,1.65,12.53,12.53,0,0,1,4.37,4.37,11.54,11.54,0,0,1,1.61,6V54.37a11.53,11.53,0,0,1-1.61,6,12,12,0,0,1-4.37,4.32,11.59,11.59,0,0,1-6,1.61Z"/><path class="cls-1" d="M125,106.93a3.41,3.41,0,0,1-3-1.72,3.35,3.35,0,0,1-.46-1.74V89.61a3.46,3.46,0,0,1,1.71-3,3.49,3.49,0,0,1,1.75-.46h17.27v2.34H125a1.14,1.14,0,0,0-1.13,1.13v13.86a1,1,0,0,0,.34.79,1.07,1.07,0,0,0,.79.33h17.27v2.34Z"/><path class="cls-1" d="M146.64,87.07V84.7H149v2.37Zm0,19.86V90.18H149v16.75Z"/><path class="cls-1" d="M162.29,106.93l-9.24-16.75h2.77l7.86,14.44,7.85-14.44h2.78L165,106.93Z"/><path class="cls-1" d="M178.2,87.07V84.7h2.37v2.37Zm0,19.86V90.18h2.37v16.75Z"/><path class="cls-1" d="M187.4,106.46a3.76,3.76,0,0,1-1.27-1.27,3.34,3.34,0,0,1-.48-1.75V84.7H188v18.74a1.07,1.07,0,0,0,.33.79,1.09,1.09,0,0,0,.8.33H192v2.37h-2.83A3.4,3.4,0,0,1,187.4,106.46Z"/><path class="cls-1" d="M205.29,106.93V86.14h19v2.34H207.63v6.87H221v2.37H207.63v6.87h16.63v2.34Z"/><path class="cls-1" d="M228.74,106.93V90.18h13.57a3.31,3.31,0,0,1,1.75.48,3.68,3.68,0,0,1,1.27,1.27,3.31,3.31,0,0,1,.48,1.75v13.25h-2.37V93.68a1.13,1.13,0,0,0-1.13-1.13H232.26a1.13,1.13,0,0,0-.81.33,1.08,1.08,0,0,0-.34.8v13.25Z"/><path class="cls-1" d="M253,113.55v-2.4h10.46a1.07,1.07,0,0,0,.79-.33,1.09,1.09,0,0,0,.33-.8v-3.09H253.4a3.4,3.4,0,0,1-1.75-.47,3.76,3.76,0,0,1-1.27-1.27,3.33,3.33,0,0,1-.47-1.75V93.68a3.31,3.31,0,0,1,.47-1.75,3.68,3.68,0,0,1,1.27-1.27,3.31,3.31,0,0,1,1.75-.48h10a3.42,3.42,0,0,1,1.78.48,3.62,3.62,0,0,1,1.25,1.27,3.39,3.39,0,0,1,.46,1.75V110a3.45,3.45,0,0,1-.46,1.78,3.62,3.62,0,0,1-1.25,1.27,3.42,3.42,0,0,1-1.78.48Zm.41-9h10a1.13,1.13,0,0,0,1.12-1.12V93.68a1.11,1.11,0,0,0-.33-.8,1.07,1.07,0,0,0-.79-.33h-10a1.14,1.14,0,0,0-1.13,1.13v9.76a1,1,0,0,0,.34.79A1.07,1.07,0,0,0,253.4,104.56Z"/><path class="cls-1" d="M271.39,87.07V84.7h2.37v2.37Zm0,19.86V90.18h2.37v16.75Z"/><path class="cls-1" d="M278.47,106.93V90.18H292a3.3,3.3,0,0,1,1.74.48,3.59,3.59,0,0,1,1.27,1.27,3.31,3.31,0,0,1,.48,1.75v13.25h-2.37V93.68a1.11,1.11,0,0,0-.33-.8,1.07,1.07,0,0,0-.79-.33H282a1.13,1.13,0,0,0-.81.33,1.09,1.09,0,0,0-.35.8v13.25Z"/><path class="cls-1" d="M301.67,106.46a3.76,3.76,0,0,1-1.27-1.27,3.34,3.34,0,0,1-.48-1.75V93.68a3.31,3.31,0,0,1,.48-1.75,3.68,3.68,0,0,1,1.27-1.27,3.31,3.31,0,0,1,1.75-.48h10a3.37,3.37,0,0,1,1.78.48,3.68,3.68,0,0,1,1.27,1.27,3.31,3.31,0,0,1,.48,1.75v6.06h-14.7v3.7a1.07,1.07,0,0,0,.33.79,1.09,1.09,0,0,0,.8.33H317v2.37H303.42A3.4,3.4,0,0,1,301.67,106.46Zm.62-9.09h12.3V93.68a1.11,1.11,0,0,0-.33-.8,1.09,1.09,0,0,0-.8-.33h-10a1.09,1.09,0,0,0-.8.33,1.11,1.11,0,0,0-.33.8Z"/><path class="cls-1" d="M322.66,106.46a3.76,3.76,0,0,1-1.27-1.27,3.34,3.34,0,0,1-.48-1.75V93.68a3.31,3.31,0,0,1,.48-1.75,3.68,3.68,0,0,1,1.27-1.27,3.31,3.31,0,0,1,1.75-.48h10a3.36,3.36,0,0,1,1.77.48,3.7,3.7,0,0,1,1.28,1.27,3.4,3.4,0,0,1,.47,1.75v6.06h-14.7v3.7a1.07,1.07,0,0,0,.33.79,1.11,1.11,0,0,0,.8.33H338v2.37H324.41A3.4,3.4,0,0,1,322.66,106.46Zm.62-9.09h12.3V93.68a1.11,1.11,0,0,0-.33-.8,1.07,1.07,0,0,0-.79-.33h-10a1.13,1.13,0,0,0-1.13,1.13Z"/><path class="cls-1" d="M342.23,106.93V93.68a3.31,3.31,0,0,1,.47-1.75A3.68,3.68,0,0,1,344,90.66a3.31,3.31,0,0,1,1.75-.48h9.41v2.37h-9.41a1.14,1.14,0,0,0-1.13,1.13v13.25Z"/><path class="cls-1" d="M358.46,87.07V84.7h2.36v2.37Zm0,19.86V90.18h2.36v16.75Z"/><path class="cls-1" d="M365.53,106.93V90.18H379.1a3.31,3.31,0,0,1,1.75.48,3.68,3.68,0,0,1,1.27,1.27,3.31,3.31,0,0,1,.48,1.75v13.25h-2.37V93.68a1.13,1.13,0,0,0-1.13-1.13H369.05a1.15,1.15,0,0,0-.81.33,1.08,1.08,0,0,0-.34.8v13.25Z"/><path class="cls-1" d="M389.79,113.55v-2.4h10.45a1.07,1.07,0,0,0,.79-.33,1.1,1.1,0,0,0,.34-.8v-3.09H390.19a3.43,3.43,0,0,1-1.75-.47,3.76,3.76,0,0,1-1.27-1.27,3.33,3.33,0,0,1-.47-1.75V93.68a3.31,3.31,0,0,1,.47-1.75,3.68,3.68,0,0,1,1.27-1.27,3.34,3.34,0,0,1,1.75-.48h10.05a3.39,3.39,0,0,1,1.78.48,3.54,3.54,0,0,1,1.25,1.27,3.39,3.39,0,0,1,.46,1.75V110a3.45,3.45,0,0,1-.46,1.78,3.54,3.54,0,0,1-1.25,1.27,3.39,3.39,0,0,1-1.78.48Zm.4-9h10.05a1.14,1.14,0,0,0,1.13-1.12V93.68a1.12,1.12,0,0,0-.34-.8,1.07,1.07,0,0,0-.79-.33H390.19a1.14,1.14,0,0,0-1.13,1.13v9.76a1,1,0,0,0,.34.79A1.07,1.07,0,0,0,390.19,104.56Z"/><path class="cls-1" d="M420.91,106.93a3.38,3.38,0,0,1-1.74-.46,3.46,3.46,0,0,1-1.26-1.26,3.35,3.35,0,0,1-.46-1.74v-.81h2.34v.81a1.07,1.07,0,0,0,.33.79,1.09,1.09,0,0,0,.79.33h13.87a1.09,1.09,0,0,0,.79-.33,1.07,1.07,0,0,0,.33-.79V98.82a1,1,0,0,0-.33-.78,1.12,1.12,0,0,0-.79-.32H420.91a3.3,3.3,0,0,1-1.74-.48A3.51,3.51,0,0,1,417.91,96a3.32,3.32,0,0,1-.46-1.73V89.61a3.39,3.39,0,0,1,.46-1.75,3.44,3.44,0,0,1,3-1.72h13.87a3.44,3.44,0,0,1,3,1.72,3.39,3.39,0,0,1,.46,1.75v.8H435.9v-.8a1.13,1.13,0,0,0-1.12-1.13H420.91a1.13,1.13,0,0,0-1.12,1.13v4.65a1.07,1.07,0,0,0,.33.78,1.11,1.11,0,0,0,.79.31h13.87a3.3,3.3,0,0,1,1.74.48,3.62,3.62,0,0,1,1.26,1.26,3.29,3.29,0,0,1,.46,1.73v4.65a3.35,3.35,0,0,1-.46,1.74,3.46,3.46,0,0,1-1.26,1.26,3.38,3.38,0,0,1-1.74.46Z"/><path class="cls-1" d="M444.38,106.46a3.76,3.76,0,0,1-1.27-1.27,3.34,3.34,0,0,1-.48-1.75V93.68a3.31,3.31,0,0,1,.48-1.75,3.68,3.68,0,0,1,1.27-1.27,3.31,3.31,0,0,1,1.75-.48h10.05a3.36,3.36,0,0,1,1.77.48,3.68,3.68,0,0,1,1.27,1.27,3.31,3.31,0,0,1,.48,1.75v6.06H445v3.7a1.07,1.07,0,0,0,.33.79,1.09,1.09,0,0,0,.8.33H459.7v2.37H446.13A3.4,3.4,0,0,1,444.38,106.46Zm.62-9.09h12.3V93.68a1.11,1.11,0,0,0-.33-.8,1.09,1.09,0,0,0-.79-.33H446.13a1.09,1.09,0,0,0-.8.33,1.11,1.11,0,0,0-.33.8Z"/><path class="cls-1" d="M463.94,106.93V93.68a3.31,3.31,0,0,1,.48-1.75,3.68,3.68,0,0,1,1.27-1.27,3.31,3.31,0,0,1,1.75-.48h9.41v2.37h-9.41a1.09,1.09,0,0,0-.8.33,1.11,1.11,0,0,0-.33.8v13.25Z"/><path class="cls-1" d="M488.52,106.93l-9.24-16.75h2.77l7.85,14.44,7.86-14.44h2.77l-9.27,16.75Z"/><path class="cls-1" d="M504.43,87.07V84.7h2.37v2.37Zm0,19.86V90.18h2.37v16.75Z"/><path class="cls-1" d="M513.17,106.46a3.68,3.68,0,0,1-1.27-1.27,3.34,3.34,0,0,1-.48-1.75V93.68a3.31,3.31,0,0,1,.48-1.75,3.59,3.59,0,0,1,1.27-1.27,3.28,3.28,0,0,1,1.74-.48h13.52v2.37H514.91a1.07,1.07,0,0,0-.79.33,1.11,1.11,0,0,0-.33.8v9.76a1.13,1.13,0,0,0,1.12,1.12h13.57v2.37H514.91A3.36,3.36,0,0,1,513.17,106.46Z"/><path class="cls-1" d="M534,106.46a3.68,3.68,0,0,1-1.27-1.27,3.34,3.34,0,0,1-.48-1.75V93.68a3.31,3.31,0,0,1,.48-1.75A3.59,3.59,0,0,1,534,90.66a3.3,3.3,0,0,1,1.74-.48h10a3.37,3.37,0,0,1,1.78.48,3.68,3.68,0,0,1,1.27,1.27,3.31,3.31,0,0,1,.48,1.75v6.06h-14.7v3.7a1.07,1.07,0,0,0,.33.79,1.09,1.09,0,0,0,.79.33h13.58v2.37H535.7A3.39,3.39,0,0,1,534,106.46Zm.62-9.09h12.3V93.68a1.11,1.11,0,0,0-.33-.8,1.09,1.09,0,0,0-.8-.33h-10a1.09,1.09,0,0,0-.79.33,1.11,1.11,0,0,0-.33.8Z"/><path class="cls-1" d="M555.3,106.46a3.68,3.68,0,0,1-1.27-1.27,3.34,3.34,0,0,1-.48-1.75v-.23h2.37v.23a1.07,1.07,0,0,0,.33.79,1.09,1.09,0,0,0,.79.33h10.05a1.09,1.09,0,0,0,.8-.33,1.07,1.07,0,0,0,.33-.79v-2.57a1.11,1.11,0,0,0-.33-.8,1.09,1.09,0,0,0-.8-.33H557a3.39,3.39,0,0,1-1.74-.47A3.54,3.54,0,0,1,554,98a3.28,3.28,0,0,1-.48-1.74V93.68a3.31,3.31,0,0,1,.48-1.75,3.59,3.59,0,0,1,1.27-1.27,3.3,3.3,0,0,1,1.74-.48h10.05a3.37,3.37,0,0,1,1.78.48,3.68,3.68,0,0,1,1.27,1.27,3.31,3.31,0,0,1,.48,1.75v.23h-2.4v-.23a1.11,1.11,0,0,0-.33-.8,1.09,1.09,0,0,0-.8-.33H557a1.09,1.09,0,0,0-.79.33,1.11,1.11,0,0,0-.33.8v2.57a1.07,1.07,0,0,0,.33.79,1.09,1.09,0,0,0,.79.33h10.05a3.37,3.37,0,0,1,1.78.48,3.68,3.68,0,0,1,1.27,1.27,3.31,3.31,0,0,1,.48,1.75v2.57a3.34,3.34,0,0,1-.48,1.75,3.76,3.76,0,0,1-1.27,1.27,3.45,3.45,0,0,1-1.78.47H557A3.39,3.39,0,0,1,555.3,106.46Z"/><path class="cls-2" d="M18.48,48.86a8,8,0,0,1-2.17-3.75,8.27,8.27,0,0,1,0-4.25,8,8,0,0,1,2.17-3.76L39.27,16.31A8,8,0,0,1,43,14.14a8.5,8.5,0,0,1,4.25,0A8,8,0,0,1,51,16.31L77.61,42.89l-4.88,4.88L46.82,21.87a2.28,2.28,0,0,0-3.34,0L24,41.31a2.28,2.28,0,0,0,0,3.34l25.9,25.91-4.88,4.88Z"/><path class="cls-2" d="M49.94,70.56l6.5,6.5L89.06,44.44,56.3,11.68a15,15,0,0,0-21.19,0L11.93,34.85a12.1,12.1,0,0,0,0,17.13L51.75,91.64,46.41,97,4.87,55.57a16.54,16.54,0,0,1,0-23.42L30,7A22.1,22.1,0,0,1,61.28,7L98.7,44.41,56.37,86.75,45.06,75.44Z"/><polygon class="cls-2" points="77.33 42.61 98.72 64.01 56.08 106.65 46.12 96.69 51.46 91.35 56.45 96.33 88.87 63.91 72.44 47.49 77.33 42.61"/></svg>