<svg id="Capa_1" data-name="Capa 1" xmlns="http://www.w3.org/2000/svg" xmlns:xlink="http://www.w3.org/1999/xlink" viewBox="0 0 432.14 473.08"><defs><style>.cls-1,.cls-3,.cls-4{fill:none;}.cls-2{clip-path:url(#clip-path);}.cls-3{stroke:#151f35;}.cls-3,.cls-4{stroke-miterlimit:10;stroke-width:31px;}.cls-4{stroke:#e52136;}</style><clipPath id="clip-path" transform="translate(0 -0.02)"><rect class="cls-1" x="-42.3" y="-18.71" width="500" height="500"/></clipPath></defs><title>CivilusImagotipo-15</title><g class="cls-2"><path class="cls-3" d="M327.7,200,209.7,82a25.17,25.17,0,0,0-35.6,0h0L83.2,173.45a25.07,25.07,0,0,0,0,35.42L201,326.72" transform="translate(0 -0.02)"/></g><g class="cls-2"><path class="cls-4" d="M201,326.72l40.73,40.77,168.4-168.4L251.46,40.42a85,85,0,0,0-120.21,0h0L39.86,131.77a83.17,83.17,0,0,0,0,117.62L210.93,420.46l30.71,30.72L410.22,282.59,327.7,200" transform="translate(0 -0.02)"/></g></svg>