<svg id="Capa_1" data-name="Capa 1" xmlns="http://www.w3.org/2000/svg" viewBox="0 0 504.28 106.15"><defs><style>.cls-1{fill:#151f35;}.cls-2{fill:#e62237;}</style></defs><title>CivilusSVG</title><path class="cls-1" d="M128.61,61.09a9.72,9.72,0,0,1-5.08-1.35,9.43,9.43,0,0,1-3.64-3.64A9.78,9.78,0,0,1,118.53,51V15.19a9.78,9.78,0,0,1,1.36-5.08,10.08,10.08,0,0,1,3.64-3.64,9.72,9.72,0,0,1,5.08-1.35h45.82v8.3H129.8a2.75,2.75,0,0,0-2.88,2.71v33.7a2.81,2.81,0,0,0,2.71,2.88h44.8v8.38Z"/><path class="cls-1" d="M186.2,61.09V5h8.38V61.09Z"/><path class="cls-1" d="M237.85,61.09,205.42,5h9.82l26.85,46.58L268.76,5h9.83L246.24,61.09Z"/><path class="cls-1" d="M288.83,61.09V5h8.39V61.09Z"/><path class="cls-1" d="M309.67,61.09V5h8.38V52.71h47.76v8.38Z"/><path class="cls-1" d="M379,59.74a9.5,9.5,0,0,1-3.64-3.64A9.77,9.77,0,0,1,374,51V5h8.38V50.76a1.92,1.92,0,0,0,1.95,2h35.31a1.7,1.7,0,0,0,1.36-.59,1.93,1.93,0,0,0,.51-1.36V5H430V51a9.77,9.77,0,0,1-1.35,5.08A9.5,9.5,0,0,1,425,59.74a9.74,9.74,0,0,1-5.08,1.35H384.11A10.19,10.19,0,0,1,379,59.74Z"/><path class="cls-1" d="M452.36,61.09a9.72,9.72,0,0,1-5.08-1.35,10.4,10.4,0,0,1-3.73-3.64A9.77,9.77,0,0,1,442.2,51V47.71h8.38v3a1.92,1.92,0,0,0,1.95,2h35.4a1.67,1.67,0,0,0,1.35-.59,2,2,0,0,0,.6-1.36V39.25a1.68,1.68,0,0,0-.6-1.36,1.89,1.89,0,0,0-1.35-.51H452.36a9.8,9.8,0,0,1-5.08-1.44,11.34,11.34,0,0,1-3.73-3.72,9.77,9.77,0,0,1-1.35-5.08v-12a9.77,9.77,0,0,1,1.35-5.08,10.4,10.4,0,0,1,3.73-3.64,9.72,9.72,0,0,1,5.08-1.35h35.82a9.72,9.72,0,0,1,5.08,1.35,9.46,9.46,0,0,1,3.65,3.64,9.77,9.77,0,0,1,1.35,5.08V18.5h-8.47v-3a1.7,1.7,0,0,0-.59-1.35,2,2,0,0,0-1.36-.59H452.45a1.91,1.91,0,0,0-1.95,1.94V27.05a1.7,1.7,0,0,0,.59,1.36,2,2,0,0,0,1.36.5H488a10.61,10.61,0,0,1,5.09,1.36A11.21,11.21,0,0,1,496.82,34a9.79,9.79,0,0,1,1.36,5.09v12a9.73,9.73,0,0,1-1.36,5.08,10.14,10.14,0,0,1-3.72,3.64A9.69,9.69,0,0,1,488,61.18Z"/><path class="cls-1" d="M121.92,95.48A2.88,2.88,0,0,1,119.38,94,2.94,2.94,0,0,1,119,92.6V80.83a3,3,0,0,1,3-3h14.65v2H121.92a.93.93,0,0,0-.93.93V92.51a1,1,0,0,0,.25.68,1,1,0,0,0,.68.25h14.65v2Z"/><path class="cls-1" d="M140.21,78.71v-2h2v2Zm0,16.77V81.33h2V95.56h-2Z"/><path class="cls-1" d="M153.51,95.48l-7.88-14.15H148l6.69,12.2,6.69-12.2h2.37l-7.87,14.23h-2.37Z"/><path class="cls-1" d="M167,78.71v-2h2v2Zm0,16.77V81.33h2V95.56h-2Z"/><path class="cls-1" d="M174.76,95.14a3.61,3.61,0,0,1-1.1-1.1,3,3,0,0,1-.42-1.53V76.68h2V92.51a1,1,0,0,0,.26.68,1,1,0,0,0,.67.25h2.46v2h-2.37A3,3,0,0,1,174.76,95.14Z"/><path class="cls-1" d="M189.92,95.48V77.86H206v2H191.87v5.84h11.35v2H191.87v5.84h14.06v2Z"/><path class="cls-1" d="M209.74,95.48V81.33h11.52a3.4,3.4,0,0,1,1.52.43,2.71,2.71,0,0,1,1.1,1.1,2.85,2.85,0,0,1,.42,1.52V95.56h-2V84.3a.93.93,0,0,0-.93-.93h-8.55a.86.86,0,0,0-.93.93V95.48Z"/><path class="cls-1" d="M230.32,101.15v-2h8.89a1,1,0,0,0,.68-.26,1,1,0,0,0,.25-.67V95.56h-9.48A3.07,3.07,0,0,1,228,94a3,3,0,0,1-.42-1.53v-8.3a3.48,3.48,0,0,1,.42-1.52,2.71,2.71,0,0,1,1.1-1.1,2.89,2.89,0,0,1,1.53-.43h8.46a3.41,3.41,0,0,1,1.53.43,2.6,2.6,0,0,1,1,1.1,2.94,2.94,0,0,1,.42,1.52V98.1a2.69,2.69,0,0,1-.42,1.53,3.36,3.36,0,0,1-1,1.1,3.22,3.22,0,0,1-1.53.42Zm.34-7.62h8.46a1,1,0,0,0,.94-.93V84.3a.88.88,0,0,0-.94-.93h-8.46a.94.94,0,0,0-.94.93v8.3a1,1,0,0,0,.26.67,1.54,1.54,0,0,0,.68.26Z"/><path class="cls-1" d="M245.9,78.71v-2h2v2Zm0,16.77V81.33h2V95.56h-2Z"/><path class="cls-1" d="M251.91,95.48V81.33h11.43a2.79,2.79,0,0,1,1.44.43,2.73,2.73,0,0,1,1.11,1.1,2.94,2.94,0,0,1,.42,1.52V95.56h-2V84.3a.88.88,0,0,0-.94-.93h-8.46a1,1,0,0,0-.68.25,1.62,1.62,0,0,0-.34.68V95.48Z"/><path class="cls-1" d="M271.56,95.14a3.5,3.5,0,0,1-1.1-1.1,2.92,2.92,0,0,1-.43-1.53v-8.3a3.37,3.37,0,0,1,.43-1.52,2.71,2.71,0,0,1,1.1-1.1,2.86,2.86,0,0,1,1.52-.43h8.47a3.41,3.41,0,0,1,1.53.43,2.77,2.77,0,0,1,1.1,1.1,2.94,2.94,0,0,1,.42,1.52v5.17H272.15v3.13a1,1,0,0,0,.26.68,1,1,0,0,0,.67.25h11.44v2H273A2.81,2.81,0,0,1,271.56,95.14Zm.51-7.71h10.41V84.3a.86.86,0,0,0-.93-.93h-8.47a1,1,0,0,0-.67.25,1,1,0,0,0-.26.68Z"/><path class="cls-1" d="M289.34,95.14a3.61,3.61,0,0,1-1.1-1.1,3,3,0,0,1-.42-1.53v-8.3a3.48,3.48,0,0,1,.42-1.52,2.77,2.77,0,0,1,1.1-1.1,2.89,2.89,0,0,1,1.53-.43h8.47a3.4,3.4,0,0,1,1.52.43,2.71,2.71,0,0,1,1.1,1.1,2.94,2.94,0,0,1,.42,1.52v5.17H289.94v3.13a.86.86,0,0,0,.93.93H302.3v2H290.78A2.84,2.84,0,0,1,289.34,95.14Zm.51-7.71h10.42V84.3a1,1,0,0,0-.26-.68,1,1,0,0,0-.67-.25h-8.47a.93.93,0,0,0-.93.93h0Z"/><path class="cls-1" d="M305.86,95.48V84.3a3.07,3.07,0,0,1,1.52-2.63,3,3,0,0,1,1.53-.42h8v2h-8a.94.94,0,0,0-.94.93V95.39h-2.11Z"/><path class="cls-1" d="M319.66,78.71v-2h2v2Zm0,16.77V81.33h2V95.56h-2Z"/><path class="cls-1" d="M325.59,95.48V81.33h11.52a3.4,3.4,0,0,1,1.52.43,2.71,2.71,0,0,1,1.1,1.1,2.94,2.94,0,0,1,.42,1.52V95.56h-2V84.3a.93.93,0,0,0-.93-.93h-8.64a1,1,0,0,0-.68.25,1,1,0,0,0-.25.68V95.48Z"/><path class="cls-1" d="M346.17,101.15v-2h8.89a1,1,0,0,0,.68-.26,1,1,0,0,0,.25-.67V95.56h-9.48A3.07,3.07,0,0,1,343.88,94a3,3,0,0,1-.42-1.53v-8.3a3.48,3.48,0,0,1,.42-1.52,2.71,2.71,0,0,1,1.1-1.1,2.87,2.87,0,0,1,1.53-.43H355a3.41,3.41,0,0,1,1.53.43,2.52,2.52,0,0,1,1,1.1,2.86,2.86,0,0,1,.43,1.52V98.1a2.63,2.63,0,0,1-.43,1.53,2.79,2.79,0,0,1-2.54,1.52Zm.34-7.62H355a1,1,0,0,0,.94-.93V84.3a.88.88,0,0,0-.94-.93h-8.46a.94.94,0,0,0-.94.93v8.3a1,1,0,0,0,.26.67,1.54,1.54,0,0,0,.68.26Z"/><path class="cls-1" d="M372.5,95.48a2.85,2.85,0,0,1-1.44-.43A2.77,2.77,0,0,1,370,94a2.88,2.88,0,0,1-.42-1.44v-.68h1.95v.68a.86.86,0,0,0,.93.93h11.77a1,1,0,0,0,.68-.25,1,1,0,0,0,.25-.68v-4a1,1,0,0,0-.25-.68,1,1,0,0,0-.68-.25H372.42a2.88,2.88,0,0,1-1.44-.42,3.26,3.26,0,0,1-1.1-1,2.79,2.79,0,0,1-.43-1.44v-4a3.33,3.33,0,0,1,.43-1.52,2.88,2.88,0,0,1,2.54-1.44h11.77a2.88,2.88,0,0,1,2.54,1.44,2.94,2.94,0,0,1,.42,1.52v.68h-1.94v-.68a.94.94,0,0,0-.94-.93H372.5a.94.94,0,0,0-.93.93v4a1,1,0,0,0,.26.68,1,1,0,0,0,.67.25h11.77a2.79,2.79,0,0,1,1.44.43,2.73,2.73,0,0,1,1.11,1.1,2.88,2.88,0,0,1,.42,1.44v4a2.94,2.94,0,0,1-.42,1.44,3.11,3.11,0,0,1-2.55,1.52Z"/><path class="cls-1" d="M392.4,95.14a3.61,3.61,0,0,1-1.1-1.1,3,3,0,0,1-.42-1.53v-8.3a3.48,3.48,0,0,1,.42-1.52,2.84,2.84,0,0,1,1.1-1.1,2.92,2.92,0,0,1,1.53-.43h8.47a3.37,3.37,0,0,1,1.52.43,2.65,2.65,0,0,1,1.1,1.1,2.86,2.86,0,0,1,.43,1.52v5.17H392.91v3.13a1,1,0,0,0,.26.68,1,1,0,0,0,.67.25h11.52v2H393.84A2.86,2.86,0,0,1,392.4,95.14Zm.51-7.71h10.42V84.3a1,1,0,0,0-.26-.68.93.93,0,0,0-.67-.25h-8.47a.86.86,0,0,0-.93.93Z"/><path class="cls-1" d="M408.92,95.48V84.3a3.52,3.52,0,0,1,.42-1.53,2.83,2.83,0,0,1,1.1-1.1,3,3,0,0,1,1.53-.42h8v2h-8a1,1,0,0,0-.68.26.93.93,0,0,0-.25.67V95.39Z"/><path class="cls-1" d="M429.75,95.48,422,81.25h2.37L431,93.44l6.69-12.19h2.37l-7.87,14.23Z"/><path class="cls-1" d="M443.22,78.71v-2h2v2Zm0,16.77V81.33h2V95.56h-2Z"/><path class="cls-1" d="M450.67,95.14a2.77,2.77,0,0,1-1.1-1.1,2.92,2.92,0,0,1-.43-1.53v-8.3a3.37,3.37,0,0,1,.43-1.52,2.71,2.71,0,0,1,1.1-1.1,2.79,2.79,0,0,1,1.44-.43h11.43v2H452.11a.86.86,0,0,0-.93.93v8.3a.93.93,0,0,0,.93.93h11.51v2H452.11A2.1,2.1,0,0,1,450.67,95.14Z"/><path class="cls-1" d="M468.28,95.14a2.9,2.9,0,0,1-1.1-1.1,3,3,0,0,1-.42-1.53v-8.3a3.48,3.48,0,0,1,.42-1.52,2.77,2.77,0,0,1,1.1-1.1,2.82,2.82,0,0,1,1.44-.43h8.47a3.33,3.33,0,0,1,1.52.43,2.73,2.73,0,0,1,1.11,1.1,2.94,2.94,0,0,1,.42,1.52v5.17H468.79v3.13a1,1,0,0,0,.25.68,1,1,0,0,0,.68.25h11.52v2H469.72A2.84,2.84,0,0,1,468.28,95.14Zm.51-7.71h10.42V84.3a1,1,0,0,0-.26-.68,1,1,0,0,0-.67-.25h-8.47a.86.86,0,0,0-.93.93Z"/><path class="cls-1" d="M486.32,95.14a2.84,2.84,0,0,1-1.1-1.1,3,3,0,0,1-.42-1.53v-.17h2v.17a1,1,0,0,0,.25.68,1,1,0,0,0,.68.25h8.47a1,1,0,0,0,.68-.25,1,1,0,0,0,.25-.68v-2.2a.86.86,0,0,0-.93-.93h-8.47a2.88,2.88,0,0,1-1.44-.42,2.8,2.8,0,0,1-1.1-1.11,2.88,2.88,0,0,1-.42-1.44v-2.2a3.48,3.48,0,0,1,.42-1.52,2.71,2.71,0,0,1,1.1-1.1,2.79,2.79,0,0,1,1.44-.43h8.47a3.37,3.37,0,0,1,1.52.43,2.65,2.65,0,0,1,1.1,1.1,2.86,2.86,0,0,1,.43,1.52v.17h-2v-.17a.93.93,0,0,0-.25-.67,1,1,0,0,0-.68-.26h-8.55a1,1,0,0,0-.68.26.93.93,0,0,0-.25.67v2.2a1,1,0,0,0,.25.68,1,1,0,0,0,.68.26h8.47a3.48,3.48,0,0,1,1.52.42,2.65,2.65,0,0,1,1.1,1.1,2.86,2.86,0,0,1,.43,1.52V92.6a3.4,3.4,0,0,1-.43,1.52,3.31,3.31,0,0,1-1.1,1.1,3.08,3.08,0,0,1-1.52.43h-8.47A7.39,7.39,0,0,1,486.32,95.14Z"/><path class="cls-1" d="M18.47,48.35a7.74,7.74,0,0,1-2.2-3.8,7.5,7.5,0,0,1,0-4.2,8.64,8.64,0,0,1,2.2-3.8l20.8-20.8a7.81,7.81,0,0,1,3.7-2.2,7.53,7.53,0,0,1,4.21,0A8.55,8.55,0,0,1,51,15.75l26.6,26.6-4.9,4.9-25.9-25.9a2.24,2.24,0,0,0-3.2-.1l-.1.1L24,40.75a2.24,2.24,0,0,0-.1,3.2l.1.1L49.88,70,45,74.85Z"/><path class="cls-2" d="M49.88,70.05l6.5,6.5L89,44l-32.7-32.8a15.09,15.09,0,0,0-21.2,0l-23.2,23.1a12.13,12.13,0,0,0,0,17.1h0l39.8,39.7-5.29,5.4L4.88,55.05a16.48,16.48,0,0,1,0-23.4h0L30,6.45a22.21,22.21,0,0,1,31.3,0h0l37.4,37.4L56.38,86.25,45.07,74.85Z"/><polygon class="cls-2" points="77.28 42.05 98.67 63.45 56.08 106.15 46.08 96.15 51.48 90.75 56.48 95.75 88.88 63.35 72.38 46.95 77.28 42.05"/></svg>