<svg id="Capa_1" data-name="Capa 1" xmlns="http://www.w3.org/2000/svg" viewBox="0 0 482.28 106.15"><defs><style>.cls-1{fill:#fff;}.cls-2{fill:#e62237;}</style></defs><title>CivilusFooter</title><path class="cls-1" d="M135.72,77.33A9.16,9.16,0,0,1,131,76.06a8.83,8.83,0,0,1-3.42-3.41,9.23,9.23,0,0,1-1.27-4.78V34.29a9.16,9.16,0,0,1,1.27-4.76A9.47,9.47,0,0,1,131,26.12a9.16,9.16,0,0,1,4.76-1.27h43v7.78H136.84a2.58,2.58,0,0,0-2.7,2.46V66.77a2.63,2.63,0,0,0,2.54,2.7h42v7.86Z" transform="translate(-0.01 0)"/><path class="cls-1" d="M189.71,77.33V24.74h7.86V77.33Z" transform="translate(-0.01 0)"/><path class="cls-1" d="M238.14,77.33,207.73,24.74h9.21l25.17,43.67,25-43.67h9.21L246,77.33Z" transform="translate(-0.01 0)"/><path class="cls-1" d="M285.93,77.33V24.74h7.87V77.33Z" transform="translate(-0.01 0)"/><path class="cls-1" d="M305.47,77.33V24.74h7.86V69.47h44.78v7.86Z" transform="translate(-0.01 0)"/><path class="cls-1" d="M370.47,76.06a8.87,8.87,0,0,1-3.41-3.41,9.14,9.14,0,0,1-1.28-4.78V24.74h7.86v42.9a1.8,1.8,0,0,0,1.72,1.87h33.21a1.61,1.61,0,0,0,1.28-.56,1.8,1.8,0,0,0,.48-1.27V24.74h8V67.87A9.16,9.16,0,0,1,417,72.63a8.94,8.94,0,0,1-3.42,3.43,9.16,9.16,0,0,1-4.76,1.27H375.26A9.59,9.59,0,0,1,370.47,76.06Z" transform="translate(-0.01 0)"/><path class="cls-1" d="M439.25,77.33a9.16,9.16,0,0,1-4.76-1.27,9.78,9.78,0,0,1-3.5-3.41,9.23,9.23,0,0,1-1.27-4.78V64.78h7.86v2.81a1.8,1.8,0,0,0,1.72,1.88h33.3a1.56,1.56,0,0,0,1.26-.55,1.89,1.89,0,0,0,.57-1.28V56.85a1.59,1.59,0,0,0-.57-1.28,1.72,1.72,0,0,0-1.26-.47H439.25a9.28,9.28,0,0,1-4.76-1.35,10.71,10.71,0,0,1-3.5-3.49,9.16,9.16,0,0,1-1.27-4.76V34.25A9.19,9.19,0,0,1,431,29.48a9.78,9.78,0,0,1,3.5-3.41,9.16,9.16,0,0,1,4.76-1.27h33.58a9.19,9.19,0,0,1,4.77,1.27A9,9,0,0,1,481,29.48a9.18,9.18,0,0,1,1.26,4.77V37.4h-7.94V34.58a1.56,1.56,0,0,0-.55-1.26,1.93,1.93,0,0,0-1.28-.56H439.33a1.79,1.79,0,0,0-1.82,1.76V45.41a1.6,1.6,0,0,0,.55,1.28,1.92,1.92,0,0,0,1.27.47h33.33a9.87,9.87,0,0,1,4.78,1.27,10.52,10.52,0,0,1,3.49,3.5,9.08,9.08,0,0,1,1.28,4.77V68a9.07,9.07,0,0,1-1.28,4.76,9.51,9.51,0,0,1-3.48,3.42,9.15,9.15,0,0,1-4.79,1.28Z" transform="translate(-0.01 0)"/><path class="cls-2" d="M18.47,48.35a7.79,7.79,0,0,1-2.2-3.8,7.5,7.5,0,0,1,0-4.2,8.64,8.64,0,0,1,2.2-3.8l20.8-20.8a7.72,7.72,0,0,1,3.7-2.2,7.54,7.54,0,0,1,4.21,0A8.65,8.65,0,0,1,51,15.75l26.6,26.6-4.9,4.9L46.8,21.35a2.24,2.24,0,0,0-3.17-.13l0,0-.1.1L24,40.75a2.24,2.24,0,0,0-.13,3.17l0,0,.1.1L49.88,70,45,74.85Z" transform="translate(-0.01 0)"/><path class="cls-1" d="M49.88,70.05l6.5,6.5L89,44,56.3,11.2a15.09,15.09,0,0,0-21.2,0L11.9,34.3a12.13,12.13,0,0,0,0,17.1h0L51.7,91.1l-5.29,5.4L4.88,55.05a16.49,16.49,0,0,1-.09-23.31l.09-.09h0L30,6.45a22.21,22.21,0,0,1,31.3,0h0l37.4,37.4L56.38,86.25,45.07,74.85Z" transform="translate(-0.01 0)"/><polygon class="cls-1" points="77.27 42.05 98.66 63.45 56.07 106.15 46.07 96.15 51.47 90.75 56.47 95.75 88.87 63.35 72.37 46.95 77.27 42.05"/></svg>