<?xml version="1.0" encoding="utf-8"?>
<!-- Generator: Adobe Illustrator 23.1.0, SVG Export Plug-In . SVG Version: 6.00 Build 0)  -->
<svg version="1.1" id="Capa_1" xmlns="http://www.w3.org/2000/svg" xmlns:xlink="http://www.w3.org/1999/xlink" x="0px" y="0px"
	 viewBox="0 0 570.6 113.6" style="enable-background:new 0 0 570.6 113.6;" xml:space="preserve">
<style type="text/css">
	.st0{fill:#151F35;}
	.st1{fill:#E62237;}
</style>
<title>CivilusSVG</title>
<path class="st0" d="M132.9,66.3c-2.1,0-4.2-0.5-6-1.6c-1.8-1-3.3-2.5-4.3-4.3c-1.1-1.8-1.6-3.9-1.6-6V12.1c0-2.1,0.5-4.2,1.6-6
	c1.1-1.8,2.5-3.3,4.3-4.3c1.8-1.1,3.9-1.6,6-1.6H187V10h-52.7c-1.8-0.1-3.3,1.3-3.4,3.2c0,0.1,0,0.2,0,0.2V53
	c-0.1,1.8,1.4,3.3,3.2,3.4c0.1,0,0.1,0,0.2,0H187v9.9L132.9,66.3z"/>
<path class="st0" d="M200.9,66.3V0.1h9.9v66.2H200.9z"/>
<path class="st0" d="M261.9,66.3L223.6,0.1h11.6l31.7,55l31.5-55H310l-38.2,66.2H261.9z"/>
<path class="st0" d="M322.1,66.3V0.1h9.9v66.2H322.1z"/>
<path class="st0" d="M346.7,66.3V0h9.9v56.4H413v9.9H346.7z"/>
<path class="st0" d="M428.6,64.7c-1.8-1-3.3-2.5-4.3-4.3c-1.1-1.8-1.6-3.9-1.6-6V0.1h9.9v54c0,1.3,1,2.3,2.3,2.3h41.7
	c0.6,0,1.2-0.2,1.6-0.7c0.4-0.4,0.6-1,0.6-1.6v-54h10v54.3c0,2.1-0.5,4.2-1.6,6c-1,1.8-2.5,3.3-4.3,4.3c-1.8,1.1-3.9,1.6-6,1.6
	h-42.3C432.6,66.3,430.5,65.8,428.6,64.7z"/>
<path class="st0" d="M515.2,66.3c-2.1,0-4.2-0.5-6-1.6c-1.8-1-3.3-2.5-4.4-4.3c-1.1-1.8-1.6-3.9-1.6-6v-3.9h9.9v3.6
	c0,1.3,1,2.3,2.3,2.3h41.8c0.6,0,1.2-0.2,1.6-0.7c0.4-0.4,0.7-1,0.7-1.6V40.5c0-0.6-0.2-1.2-0.7-1.6c-0.4-0.4-1-0.6-1.6-0.6h-42
	c-2.1,0-4.2-0.6-6-1.7c-1.8-1.1-3.3-2.6-4.4-4.4c-1.1-1.8-1.6-3.9-1.6-6V12.1c0-2.1,0.5-4.2,1.6-6c1.1-1.8,2.6-3.3,4.4-4.3
	c1.8-1.1,3.9-1.6,6-1.6h42.3c2.1,0,4.2,0.5,6,1.6c1.8,1,3.3,2.5,4.3,4.3c1.1,1.8,1.6,3.9,1.6,6v3.9h-10v-3.5c0-0.6-0.2-1.2-0.7-1.6
	c-0.4-0.4-1-0.7-1.6-0.7h-41.8c-1.3,0-2.3,1-2.3,2.3v13.6c0,0.6,0.2,1.2,0.7,1.6c0.4,0.4,1,0.6,1.6,0.6h42c2.1,0,4.2,0.6,6,1.6
	c1.8,1.1,3.3,2.6,4.4,4.4c1.1,1.8,1.6,3.9,1.6,6v14.2c0,2.1-0.5,4.2-1.6,6c-1.1,1.8-2.6,3.3-4.4,4.3c-1.8,1.1-3.9,1.6-6,1.6
	L515.2,66.3z"/>
<path class="st0" d="M125,106.9c-1.2,0-2.4-0.6-3-1.7c-0.3-0.5-0.5-1.1-0.5-1.7V89.6c0-1.2,0.6-2.4,1.7-3c0.5-0.3,1.1-0.5,1.8-0.5
	h17.3v2.3H125c-0.6,0-1.1,0.5-1.1,1.1v13.9c0,0.3,0.1,0.6,0.3,0.8c0.2,0.2,0.5,0.3,0.8,0.3h17.3v2.3L125,106.9z"/>
<path class="st0" d="M146.6,87.1v-2.4h2.4v2.4H146.6z M146.6,106.9V90.2h2.4v16.8H146.6z"/>
<path class="st0" d="M162.3,106.9L153,90.2h2.8l7.9,14.4l7.9-14.4h2.8l-9.3,16.8H162.3z"/>
<path class="st0" d="M178.2,87.1v-2.4h2.4v2.4H178.2z M178.2,106.9V90.2h2.4v16.8H178.2z"/>
<path class="st0" d="M187.4,106.5c-0.5-0.3-1-0.8-1.3-1.3c-0.3-0.5-0.5-1.1-0.5-1.8V84.7h2.4v18.7c0,0.3,0.1,0.6,0.3,0.8
	c0.2,0.2,0.5,0.3,0.8,0.3h2.9v2.4h-2.8C188.5,106.9,187.9,106.8,187.4,106.5z"/>
<path class="st0" d="M205.3,106.9V86.1h19v2.3h-16.7v6.9H221v2.4h-13.4v6.9h16.6v2.3H205.3z"/>
<path class="st0" d="M228.7,106.9V90.2h13.6c0.6,0,1.2,0.2,1.8,0.5c0.5,0.3,1,0.7,1.3,1.3c0.3,0.5,0.5,1.1,0.5,1.8v13.2h-2.4V93.7
	c0-0.6-0.5-1.1-1.1-1.1l0,0h-10.1c-0.3,0-0.6,0.1-0.8,0.3c-0.2,0.2-0.3,0.5-0.3,0.8v13.2L228.7,106.9z"/>
<path class="st0" d="M253,113.6v-2.4h10.5c0.3,0,0.6-0.1,0.8-0.3c0.2-0.2,0.3-0.5,0.3-0.8v-3.1h-11.2c-0.6,0-1.2-0.2-1.8-0.5
	c-0.5-0.3-1-0.8-1.3-1.3c-0.3-0.5-0.5-1.1-0.5-1.8v-9.8c0-0.6,0.2-1.2,0.5-1.8c0.3-0.5,0.7-1,1.3-1.3c0.5-0.3,1.1-0.5,1.8-0.5h10
	c0.6,0,1.2,0.2,1.8,0.5c0.5,0.3,0.9,0.7,1.2,1.3c0.3,0.5,0.5,1.1,0.5,1.8V110c0,0.6-0.1,1.2-0.5,1.8c-0.3,0.5-0.7,1-1.2,1.3
	c-0.5,0.3-1.2,0.5-1.8,0.5L253,113.6z M253.4,104.6h10c0.6,0,1.1-0.5,1.1-1.1v-9.8c0-0.3-0.1-0.6-0.3-0.8c-0.2-0.2-0.5-0.3-0.8-0.3
	h-10c-0.6,0-1.1,0.5-1.1,1.1v9.8c0,0.3,0.1,0.6,0.3,0.8C252.8,104.4,253.1,104.6,253.4,104.6L253.4,104.6z"/>
<path class="st0" d="M271.4,87.1v-2.4h2.4v2.4H271.4z M271.4,106.9V90.2h2.4v16.8H271.4z"/>
<path class="st0" d="M278.5,106.9V90.2H292c0.6,0,1.2,0.2,1.7,0.5c0.5,0.3,1,0.7,1.3,1.3c0.3,0.5,0.5,1.1,0.5,1.8v13.2h-2.4V93.7
	c0-0.3-0.1-0.6-0.3-0.8c-0.2-0.2-0.5-0.3-0.8-0.3h-10c-0.3,0-0.6,0.1-0.8,0.3c-0.2,0.2-0.3,0.5-0.4,0.8v13.2H278.5z"/>
<path class="st0" d="M301.7,106.5c-0.5-0.3-1-0.8-1.3-1.3c-0.3-0.5-0.5-1.1-0.5-1.8v-9.8c0-0.6,0.2-1.2,0.5-1.8
	c0.3-0.5,0.7-1,1.3-1.3c0.5-0.3,1.1-0.5,1.8-0.5h10c0.6,0,1.2,0.2,1.8,0.5c0.5,0.3,1,0.7,1.3,1.3c0.3,0.5,0.5,1.1,0.5,1.8v6.1h-14.7
	v3.7c0,0.3,0.1,0.6,0.3,0.8c0.2,0.2,0.5,0.3,0.8,0.3H317v2.4h-13.6C302.8,106.9,302.2,106.8,301.7,106.5z M302.3,97.4h12.3v-3.7
	c0-0.3-0.1-0.6-0.3-0.8c-0.2-0.2-0.5-0.3-0.8-0.3h-10c-0.3,0-0.6,0.1-0.8,0.3c-0.2,0.2-0.3,0.5-0.3,0.8L302.3,97.4z"/>
<path class="st0" d="M322.7,106.5c-0.5-0.3-1-0.8-1.3-1.3c-0.3-0.5-0.5-1.1-0.5-1.8v-9.8c0-0.6,0.2-1.2,0.5-1.8
	c0.3-0.5,0.7-1,1.3-1.3c0.5-0.3,1.1-0.5,1.8-0.5h10c0.6,0,1.2,0.2,1.8,0.5c0.5,0.3,1,0.7,1.3,1.3c0.3,0.5,0.5,1.1,0.5,1.8v6.1h-14.7
	v3.7c0,0.3,0.1,0.6,0.3,0.8c0.2,0.2,0.5,0.3,0.8,0.3H338v2.4h-13.6C323.8,106.9,323.2,106.8,322.7,106.5z M323.3,97.4h12.3v-3.7
	c0-0.3-0.1-0.6-0.3-0.8c-0.2-0.2-0.5-0.3-0.8-0.3h-10c-0.6,0-1.1,0.5-1.1,1.1l0,0L323.3,97.4z"/>
<path class="st0" d="M342.2,106.9V93.7c0-0.6,0.2-1.2,0.5-1.8c0.3-0.5,0.8-1,1.3-1.3c0.5-0.3,1.1-0.5,1.8-0.5h9.4v2.4h-9.4
	c-0.6,0-1.1,0.5-1.1,1.1v13.2H342.2z"/>
<path class="st0" d="M358.5,87.1v-2.4h2.4v2.4H358.5z M358.5,106.9V90.2h2.4v16.8H358.5z"/>
<path class="st0" d="M365.5,106.9V90.2h13.6c0.6,0,1.2,0.2,1.8,0.5c0.5,0.3,1,0.7,1.3,1.3c0.3,0.5,0.5,1.1,0.5,1.8v13.2h-2.4V93.7
	c0-0.6-0.5-1.1-1.1-1.1l0,0H369c-0.3,0-0.6,0.1-0.8,0.3c-0.2,0.2-0.3,0.5-0.3,0.8v13.2L365.5,106.9z"/>
<path class="st0" d="M389.8,113.6v-2.4h10.5c0.3,0,0.6-0.1,0.8-0.3c0.2-0.2,0.3-0.5,0.3-0.8v-3.1h-11.2c-0.6,0-1.2-0.2-1.8-0.5
	c-0.5-0.3-1-0.8-1.3-1.3c-0.3-0.5-0.5-1.1-0.5-1.8v-9.8c0-0.6,0.2-1.2,0.5-1.8c0.3-0.5,0.7-1,1.3-1.3c0.5-0.3,1.1-0.5,1.8-0.5h10
	c0.6,0,1.2,0.2,1.8,0.5c0.5,0.3,0.9,0.7,1.2,1.3c0.3,0.5,0.5,1.1,0.5,1.8V110c0,0.6-0.1,1.2-0.5,1.8c-0.3,0.5-0.7,1-1.2,1.3
	c-0.5,0.3-1.2,0.5-1.8,0.5L389.8,113.6z M390.2,104.6h10c0.6,0,1.1-0.5,1.1-1.1v-9.8c0-0.3-0.1-0.6-0.3-0.8
	c-0.2-0.2-0.5-0.3-0.8-0.3h-10c-0.6,0-1.1,0.5-1.1,1.1v9.8c0,0.3,0.1,0.6,0.3,0.8C389.6,104.4,389.9,104.6,390.2,104.6L390.2,104.6z
	"/>
<path class="st0" d="M420.9,106.9c-0.6,0-1.2-0.2-1.7-0.5c-0.5-0.3-1-0.7-1.3-1.3c-0.3-0.5-0.5-1.1-0.5-1.7v-0.8h2.3v0.8
	c0,0.3,0.1,0.6,0.3,0.8c0.2,0.2,0.5,0.3,0.8,0.3h13.9c0.3,0,0.6-0.1,0.8-0.3c0.2-0.2,0.3-0.5,0.3-0.8v-4.7c0-0.3-0.1-0.6-0.3-0.8
	c-0.2-0.2-0.5-0.3-0.8-0.3h-13.9c-0.6,0-1.2-0.2-1.7-0.5c-0.5-0.3-1-0.7-1.3-1.2c-0.3-0.5-0.5-1.1-0.5-1.7v-4.7
	c0-0.6,0.2-1.2,0.5-1.8c0.6-1.1,1.8-1.7,3-1.7h13.9c1.2,0,2.4,0.6,3,1.7c0.3,0.5,0.5,1.1,0.5,1.8v0.8h-2.3v-0.8
	c0-0.6-0.5-1.1-1.1-1.1h-13.9c-0.6,0-1.1,0.5-1.1,1.1v4.7c0,0.3,0.1,0.6,0.3,0.8c0.2,0.2,0.5,0.3,0.8,0.3h13.9
	c0.6,0,1.2,0.2,1.7,0.5c0.5,0.3,1,0.7,1.3,1.3c0.3,0.5,0.5,1.1,0.5,1.7v4.7c0,0.6-0.2,1.2-0.5,1.7c-0.3,0.5-0.7,1-1.3,1.3
	c-0.5,0.3-1.1,0.5-1.7,0.5L420.9,106.9z"/>
<path class="st0" d="M444.4,106.5c-0.5-0.3-1-0.8-1.3-1.3c-0.3-0.5-0.5-1.1-0.5-1.8v-9.8c0-0.6,0.2-1.2,0.5-1.8
	c0.3-0.5,0.7-1,1.3-1.3c0.5-0.3,1.1-0.5,1.8-0.5h10c0.6,0,1.2,0.2,1.8,0.5c0.5,0.3,1,0.7,1.3,1.3c0.3,0.5,0.5,1.1,0.5,1.8v6.1H445
	v3.7c0,0.3,0.1,0.6,0.3,0.8c0.2,0.2,0.5,0.3,0.8,0.3h13.6v2.4h-13.6C445.5,106.9,444.9,106.8,444.4,106.5z M445,97.4h12.3v-3.7
	c0-0.3-0.1-0.6-0.3-0.8c-0.2-0.2-0.5-0.3-0.8-0.3h-10c-0.3,0-0.6,0.1-0.8,0.3c-0.2,0.2-0.3,0.5-0.3,0.8L445,97.4z"/>
<path class="st0" d="M463.9,106.9V93.7c0-0.6,0.2-1.2,0.5-1.8c0.3-0.5,0.7-1,1.3-1.3c0.5-0.3,1.1-0.5,1.8-0.5h9.4v2.4h-9.4
	c-0.3,0-0.6,0.1-0.8,0.3c-0.2,0.2-0.3,0.5-0.3,0.8v13.2L463.9,106.9z"/>
<path class="st0" d="M488.5,106.9l-9.2-16.8h2.8l7.9,14.4l7.9-14.4h2.8l-9.3,16.8H488.5z"/>
<path class="st0" d="M504.4,87.1v-2.4h2.4v2.4H504.4z M504.4,106.9V90.2h2.4v16.8H504.4z"/>
<path class="st0" d="M513.2,106.5c-0.5-0.3-1-0.7-1.3-1.3c-0.3-0.5-0.5-1.1-0.5-1.8v-9.8c0-0.6,0.2-1.2,0.5-1.8
	c0.3-0.5,0.7-1,1.3-1.3c0.5-0.3,1.1-0.5,1.7-0.5h13.5v2.4h-13.5c-0.3,0-0.6,0.1-0.8,0.3c-0.2,0.2-0.3,0.5-0.3,0.8v9.8
	c0,0.6,0.5,1.1,1.1,1.1h13.6v2.4h-13.6C514.3,106.9,513.7,106.8,513.2,106.5z"/>
<path class="st0" d="M534,106.5c-0.5-0.3-1-0.7-1.3-1.3c-0.3-0.5-0.5-1.1-0.5-1.8v-9.8c0-0.6,0.2-1.2,0.5-1.8c0.3-0.5,0.7-1,1.3-1.3
	c0.5-0.3,1.1-0.5,1.7-0.5h10c0.6,0,1.2,0.2,1.8,0.5c0.5,0.3,1,0.7,1.3,1.3c0.3,0.5,0.5,1.1,0.5,1.8v6.1h-14.7v3.7
	c0,0.3,0.1,0.6,0.3,0.8c0.2,0.2,0.5,0.3,0.8,0.3h13.6v2.4h-13.6C535.1,106.9,534.5,106.8,534,106.5z M534.6,97.4h12.3v-3.7
	c0-0.3-0.1-0.6-0.3-0.8c-0.2-0.2-0.5-0.3-0.8-0.3h-10c-0.3,0-0.6,0.1-0.8,0.3c-0.2,0.2-0.3,0.5-0.3,0.8L534.6,97.4z"/>
<path class="st0" d="M555.3,106.5c-0.5-0.3-1-0.7-1.3-1.3c-0.3-0.5-0.5-1.1-0.5-1.8v-0.2h2.4v0.2c0,0.3,0.1,0.6,0.3,0.8
	c0.2,0.2,0.5,0.3,0.8,0.3h10c0.3,0,0.6-0.1,0.8-0.3c0.2-0.2,0.3-0.5,0.3-0.8v-2.6c0-0.3-0.1-0.6-0.3-0.8c-0.2-0.2-0.5-0.3-0.8-0.3
	H557c-0.6,0-1.2-0.2-1.7-0.5c-0.5-0.3-1-0.7-1.3-1.3c-0.3-0.5-0.5-1.1-0.5-1.7v-2.6c0-0.6,0.2-1.2,0.5-1.8c0.3-0.5,0.7-1,1.3-1.3
	c0.5-0.3,1.1-0.5,1.7-0.5h10c0.6,0,1.2,0.2,1.8,0.5c0.5,0.3,1,0.7,1.3,1.3c0.3,0.5,0.5,1.1,0.5,1.8v0.2h-2.4v-0.2
	c0-0.3-0.1-0.6-0.3-0.8c-0.2-0.2-0.5-0.3-0.8-0.3H557c-0.3,0-0.6,0.1-0.8,0.3c-0.2,0.2-0.3,0.5-0.3,0.8v2.6c0,0.3,0.1,0.6,0.3,0.8
	c0.2,0.2,0.5,0.3,0.8,0.3h10c0.6,0,1.2,0.2,1.8,0.5c0.5,0.3,1,0.7,1.3,1.3c0.3,0.5,0.5,1.1,0.5,1.8v2.6c0,0.6-0.2,1.2-0.5,1.8
	c-0.3,0.5-0.8,1-1.3,1.3c-0.5,0.3-1.2,0.5-1.8,0.5h-10C556.4,106.9,555.8,106.8,555.3,106.5z"/>
<path class="st0" d="M18.5,48.9c-1.1-1-1.8-2.3-2.2-3.8c-0.4-1.4-0.4-2.9,0-4.2c0.4-1.4,1.1-2.7,2.2-3.8l20.8-20.8
	c1-1.1,2.3-1.8,3.7-2.2c1.4-0.4,2.9-0.4,4.2,0c1.4,0.4,2.7,1.1,3.8,2.2l26.6,26.6l-4.9,4.9L46.8,21.9c-0.9-0.9-2.3-1-3.2-0.1
	c0,0-0.1,0.1-0.1,0.1L24,41.3c-0.9,0.9-1,2.3-0.1,3.2c0,0,0.1,0.1,0.1,0.1l25.9,25.9L45,75.4L18.5,48.9z"/>
<path class="st1" d="M49.9,70.6l6.5,6.5l32.6-32.6L56.3,11.7c-5.9-5.8-15.3-5.8-21.2,0L11.9,34.8c-4.7,4.7-4.7,12.4,0,17.1
	c0,0,0,0,0,0l39.8,39.7L46.4,97L4.9,55.6c-6.5-6.5-6.5-16.9,0-23.4c0,0,0,0,0,0L30,7c8.6-8.6,22.6-8.6,31.3,0c0,0,0,0,0,0l37.4,37.4
	L56.4,86.8L45.1,75.4L49.9,70.6z"/>
<polygon class="st1" points="77.3,42.6 98.7,64 56.1,106.7 46.1,96.7 51.5,91.3 56.5,96.3 88.9,63.9 72.4,47.5 "/>
</svg>
