<svg id="Capa_1" data-name="Capa 1" xmlns="http://www.w3.org/2000/svg" viewBox="0 0 98.73 106.14"><defs><style>.cls-1{fill:#e62237;}.cls-2{fill:#151f35;}</style></defs><title>ImagotipoColor</title><path class="cls-1" d="M18.48,48.35a8,8,0,0,1-2.17-3.76,8.27,8.27,0,0,1,0-4.25,8,8,0,0,1,2.17-3.75L39.27,15.8A8,8,0,0,1,43,13.63a8.27,8.27,0,0,1,4.25,0A8,8,0,0,1,51,15.8L77.61,42.38l-4.88,4.88L46.82,21.36a2.28,2.28,0,0,0-3.34,0L24,40.8a2.28,2.28,0,0,0,0,3.34l25.9,25.91-4.88,4.88Z"/><path class="cls-2" d="M49.94,70.05l6.5,6.5L89.06,43.93,56.3,11.16a15,15,0,0,0-21.19,0L11.93,34.34a12.1,12.1,0,0,0,0,17.13L51.75,91.12l-5.34,5.34L4.87,55.06a16.55,16.55,0,0,1,0-23.43L30,6.48a22.1,22.1,0,0,1,31.27,0L98.7,43.9,56.37,86.24,45.06,74.93Z"/><polygon class="cls-2" points="77.33 42.09 98.72 63.49 56.08 106.14 46.12 96.18 51.46 90.84 56.45 95.82 88.87 63.4 72.44 46.98 77.33 42.09"/></svg>