<svg xmlns="http://www.w3.org/2000/svg" width="204.161" height="254" viewBox="0 0 204.161 254">
  <g id="Grupo_45" data-name="Grupo 45" transform="translate(-2080 -9217)">
    <g id="Grupo_44" data-name="Grupo 44">
      <path id="Trazado_434" data-name="Trazado 434" d="M2634.046,7473.407v24.156h31.262v127.576H2622.6v23.5h113.18v-23.5h-43.843V7497.563h31.039v-24.156Z" transform="translate(-502 1782)" fill="#c21220"/>
      <path id="Icon_ionic-ios-arrow-back" data-name="Icon ionic-ios-arrow-back" d="M1.584,4.595,5.063,1.12a.657.657,0,1,0-.93-.928L.191,4.13a.656.656,0,0,0-.019.906L4.129,9a.657.657,0,0,0,.93-.928Z" transform="translate(2163 9348.738) rotate(180)" fill="#041129"/>
      <text id="tw" transform="translate(2202 9323)" fill="#041129" stroke="rgba(0,0,0,0)" stroke-width="1" font-size="16" font-family="Jura" font-weight="700"><tspan x="0" y="15">t</tspan></text>
      <line id="Línea_47" data-name="Línea 47" x1="22.941" transform="translate(2191.559 9343.962)" fill="none" stroke="#041129" stroke-width="1"/>
      <path id="Icon_ionic-ios-arrow-back-2" data-name="Icon ionic-ios-arrow-back" d="M1.584,4.595,5.063,1.12a.657.657,0,1,0-.93-.928L.191,4.13a.656.656,0,0,0-.019.906L4.129,9a.657.657,0,0,0,.93-.928Z" transform="translate(2190.5 9339.546)" fill="#041129"/>
      <line id="Línea_48" data-name="Línea 48" x1="22.941" transform="translate(2138.559 9343.962)" fill="none" stroke="#041129" stroke-width="1"/>
      <path id="Icon_ionic-ios-arrow-back-3" data-name="Icon ionic-ios-arrow-back" d="M1.584,4.595,5.063,1.12a.657.657,0,1,0-.93-.928L.191,4.13a.656.656,0,0,0-.019.906L4.129,9a.657.657,0,0,0,.93-.928Z" transform="translate(2248.399 9279.398) rotate(90)" fill="#041129"/>
      <path id="Icon_ionic-ios-arrow-back-4" data-name="Icon ionic-ios-arrow-back" d="M1.584,4.595,5.063,1.12a.657.657,0,1,0-.93-.928L.191,4.13a.656.656,0,0,0-.019.906L4.129,9a.657.657,0,0,0,.93-.928Z" transform="translate(2260.399 9430.398) rotate(90)" fill="#041129"/>
      <text id="tf2" transform="translate(2252.161 9258.898)" fill="#041129" stroke="rgba(0,0,0,0)" stroke-width="1" font-size="16" font-family="Jura" font-weight="700"><tspan x="0" y="15">tf</tspan></text>
      <text id="tf1" transform="translate(2264.161 9409.898)" fill="#041129" stroke="rgba(0,0,0,0)" stroke-width="1" font-size="16" font-family="Jura" font-weight="700"><tspan x="0" y="15">tf</tspan></text>
      <line id="Línea_49" data-name="Línea 49" y2="50.601" transform="translate(2243.623 9231.898)" fill="none" stroke="#041129" stroke-width="1"/>
      <line id="Línea_54" data-name="Línea 54" y2="50.601" transform="translate(2255.623 9382.898)" fill="none" stroke="#041129" stroke-width="1"/>
      <path id="Icon_ionic-ios-arrow-back-5" data-name="Icon ionic-ios-arrow-back" d="M1.584,4.595,5.063,1.12a.657.657,0,1,0-.93-.928L.191,4.13a.656.656,0,0,0-.019.906L4.129,9a.657.657,0,0,0,.93-.928Z" transform="translate(2239.207 9255.898) rotate(-90)" fill="#041129"/>
      <path id="Icon_ionic-ios-arrow-back-6" data-name="Icon ionic-ios-arrow-back" d="M1.584,4.595,5.063,1.12a.657.657,0,1,0-.93-.928L.191,4.13a.656.656,0,0,0-.019.906L4.129,9a.657.657,0,0,0,.93-.928Z" transform="translate(2251.207 9406.898) rotate(-90)" fill="#041129"/>
      <line id="Línea_50" data-name="Línea 50" x1="22.941" transform="translate(2243.623 9303.84) rotate(-90)" fill="none" stroke="#041129" stroke-width="1"/>
      <line id="Línea_55" data-name="Línea 55" x1="22.941" transform="translate(2255.623 9454.84) rotate(-90)" fill="none" stroke="#041129" stroke-width="1"/>
      <line id="Línea_51" data-name="Línea 51" x2="87.088" transform="translate(2132.883 9240.322)" fill="none" stroke="#041129" stroke-width="1"/>
      <line id="Línea_53" data-name="Línea 53" x2="111.166" transform="translate(2121.423 9446.322)" fill="none" stroke="#041129" stroke-width="1"/>
      <path id="Icon_ionic-ios-arrow-back-7" data-name="Icon ionic-ios-arrow-back" d="M1.584,4.6,5.063,1.12a.657.657,0,0,0-.93-.928L.191,4.13a.656.656,0,0,0-.019.906L4.129,9a.657.657,0,0,0,.93-.928Z" transform="translate(2221.031 9244.739) rotate(180)" fill="#041129"/>
      <path id="Icon_ionic-ios-arrow-back-8" data-name="Icon ionic-ios-arrow-back" d="M1.787,4.6,5.711,1.12a.6.6,0,0,0,0-.928.813.813,0,0,0-1.05,0L.216,4.13a.6.6,0,0,0-.022.906L4.658,9a.815.815,0,0,0,1.05,0,.6.6,0,0,0,0-.928Z" transform="translate(2233.783 9450.739) rotate(180)" fill="#041129"/>
      <path id="Icon_ionic-ios-arrow-back-9" data-name="Icon ionic-ios-arrow-back" d="M1.584,4.6,5.063,1.12a.657.657,0,0,0-.93-.928L.191,4.13a.656.656,0,0,0-.019.906L4.129,9a.657.657,0,0,0,.93-.928Z" transform="translate(2132.159 9235.547)" fill="#041129"/>
      <path id="Icon_ionic-ios-arrow-back-10" data-name="Icon ionic-ios-arrow-back" d="M1.793,4.6,5.729,1.12a.6.6,0,0,0,0-.928.818.818,0,0,0-1.053,0L.217,4.13a.6.6,0,0,0-.022.906L4.673,9A.819.819,0,0,0,5.726,9a.6.6,0,0,0,0-.928Z" transform="translate(2120.603 9441.547)" fill="#041129"/>
      <text id="bf2" transform="translate(2165 9218)" fill="#041129" stroke="rgba(0,0,0,0)" stroke-width="1" font-size="16" font-family="Jura" font-weight="700"><tspan x="0" y="15">bf2</tspan></text>
      <text id="bf1" transform="translate(2166 9452)" fill="#041129" stroke="rgba(0,0,0,0)" stroke-width="1" font-size="16" font-family="Jura" font-weight="700"><tspan x="0" y="15">bf1</tspan></text>
      <line id="Línea_52" data-name="Línea 52" x2="173.337" transform="translate(2097.583 9429.911) rotate(-90)" fill="none" stroke="#041129" stroke-width="1"/>
      <path id="Icon_ionic-ios-arrow-back-11" data-name="Icon ionic-ios-arrow-back" d="M1.584,4.6,5.063,1.12a.657.657,0,0,0-.93-.928L.191,4.13a.656.656,0,0,0-.019.906L4.129,9a.657.657,0,0,0,.93-.928Z" transform="translate(2102 9255.516) rotate(90)" fill="#041129"/>
      <path id="Icon_ionic-ios-arrow-back-12" data-name="Icon ionic-ios-arrow-back" d="M1.584,4.6,5.063,1.12a.657.657,0,0,0-.93-.928L.191,4.13a.656.656,0,0,0-.019.906L4.129,9a.657.657,0,0,0,.93-.928Z" transform="translate(2092.807 9430.636) rotate(-90)" fill="#041129"/>
      <text id="h" transform="translate(2081 9332)" fill="#041129" stroke="rgba(0,0,0,0)" stroke-width="1" font-size="16" font-family="Jura" font-weight="700"><tspan x="0" y="15">h</tspan></text>
    </g>
  </g>
</svg>
