<svg xmlns="http://www.w3.org/2000/svg" width="174.225" height="218" viewBox="0 0 174.225 218">
  <g id="Grupo_50" data-name="Grupo 50" transform="translate(-2123.775 -8032)">
    <g id="Grupo_41" data-name="Grupo 41">
      <g id="Grupo_39" data-name="Grupo 39">
        <rect id="Rectángulo_92" data-name="Rectángulo 92" width="127" height="178" transform="translate(2124 8072)" fill="#c21220"/>
        <line id="Línea_29" data-name="Línea 29" x2="125.471" transform="translate(2124.5 8053.322)" fill="none" stroke="#041129" stroke-width="1"/>
        <path id="Icon_ionic-ios-arrow-back" data-name="Icon ionic-ios-arrow-back" d="M1.584,4.6,5.063,1.12a.657.657,0,0,0-.93-.928L.191,4.13a.656.656,0,0,0-.019.906L4.129,9a.657.657,0,0,0,.93-.928Z" transform="translate(2251.031 8057.739) rotate(180)" fill="#041129"/>
        <path id="Icon_ionic-ios-arrow-back-2" data-name="Icon ionic-ios-arrow-back" d="M1.584,4.6,5.063,1.12a.657.657,0,0,0-.93-.928L.191,4.13a.656.656,0,0,0-.019.906L4.129,9a.657.657,0,0,0,.93-.928Z" transform="translate(2123.775 8048.546)" fill="#041129"/>
        <line id="Línea_39" data-name="Línea 39" x2="176.701" transform="translate(2278.583 8249.275) rotate(-90)" fill="none" stroke="#041129" stroke-width="1"/>
        <path id="Icon_ionic-ios-arrow-back-3" data-name="Icon ionic-ios-arrow-back" d="M1.584,4.6,5.063,1.12a.657.657,0,0,0-.93-.928L.191,4.13a.656.656,0,0,0-.019.906L4.129,9a.657.657,0,0,0,.93-.928Z" transform="translate(2283 8071.515) rotate(90)" fill="#041129"/>
        <path id="Icon_ionic-ios-arrow-back-4" data-name="Icon ionic-ios-arrow-back" d="M1.584,4.6,5.063,1.12a.657.657,0,0,0-.93-.928L.191,4.13a.656.656,0,0,0-.019.906L4.129,9a.657.657,0,0,0,.93-.928Z" transform="translate(2273.807 8250) rotate(-90)" fill="#041129"/>
        <text id="b" transform="translate(2183 8033)" fill="#041129" stroke="rgba(0,0,0,0)" stroke-width="1" font-size="13" font-family="Jura" font-weight="700"><tspan x="0" y="13">b</tspan></text>
        <text id="h" transform="translate(2285 8150)" fill="#041129" stroke="rgba(0,0,0,0)" stroke-width="1" font-size="13" font-family="Jura" font-weight="700"><tspan x="0" y="13">h</tspan></text>
      </g>
    </g>
  </g>
</svg>
