<svg xmlns="http://www.w3.org/2000/svg" width="216.161" height="218.171" viewBox="0 0 216.161 218.171">
  <g id="Grupo_47" data-name="Grupo 47" transform="translate(-2066 -9586)">
    <path id="Icon_ionic-ios-arrow-back" data-name="Icon ionic-ios-arrow-back" d="M1.584,4.595,5.063,1.12a.657.657,0,1,0-.93-.928L.191,4.13a.656.656,0,0,0-.019.906L4.129,9a.657.657,0,0,0,.93-.928Z" transform="translate(2157 9724.738) rotate(180)" fill="#041129"/>
    <text id="tw" transform="translate(2139 9698)" fill="#041129" stroke="rgba(0,0,0,0)" stroke-width="1" font-size="16" font-family="Jura" font-weight="700"><tspan x="0" y="15">t</tspan></text>
    <line id="Línea_57" data-name="Línea 57" x1="22.941" transform="translate(2132.559 9719.962)" fill="none" stroke="#041129" stroke-width="1"/>
    <path id="Icon_ionic-ios-arrow-back-2" data-name="Icon ionic-ios-arrow-back" d="M1.947,4.6,6.222,1.12a.572.572,0,0,0,0-.928.948.948,0,0,0-1.144,0L.235,4.13a.571.571,0,0,0-.024.906L5.075,9A.949.949,0,0,0,6.219,9a.572.572,0,0,0,0-.928Z" transform="translate(2106.046 9604.547)" fill="#041129"/>
    <line id="Línea_64" data-name="Línea 64" x2="173.337" transform="translate(2083.583 9798.911) rotate(-90)" fill="none" stroke="#041129" stroke-width="1"/>
    <path id="Icon_ionic-ios-arrow-back-3" data-name="Icon ionic-ios-arrow-back" d="M1.584,4.6,5.063,1.12a.657.657,0,0,0-.93-.928L.191,4.13a.656.656,0,0,0-.019.906L4.129,9a.657.657,0,0,0,.93-.928Z" transform="translate(2088 9624.516) rotate(90)" fill="#041129"/>
    <path id="Icon_ionic-ios-arrow-back-4" data-name="Icon ionic-ios-arrow-back" d="M1.584,4.6,5.063,1.12a.657.657,0,0,0-.93-.928L.191,4.13a.656.656,0,0,0-.019.906L4.129,9a.657.657,0,0,0,.93-.928Z" transform="translate(2078.807 9799.636) rotate(-90)" fill="#041129"/>
    <text id="h" transform="translate(2067 9701)" fill="#041129" stroke="rgba(0,0,0,0)" stroke-width="1" font-size="16" font-family="Jura" font-weight="700"><tspan x="0" y="15">h</tspan></text>
    <path id="Trazado_435" data-name="Trazado 435" d="M2614.046,7473.407v24.156h51.262v155.608h26.633V7497.563h51.039v-24.156Z" transform="translate(-508 2151)" fill="#c21220"/>
    <line id="Línea_56" data-name="Línea 56" x1="22.941" transform="translate(2185.559 9719.962)" fill="none" stroke="#041129" stroke-width="1"/>
    <path id="Icon_ionic-ios-arrow-back-5" data-name="Icon ionic-ios-arrow-back" d="M1.584,4.595,5.063,1.12a.657.657,0,1,0-.93-.928L.191,4.13a.656.656,0,0,0-.019.906L4.129,9a.657.657,0,0,0,.93-.928Z" transform="translate(2184.5 9715.546)" fill="#041129"/>
    <path id="Icon_ionic-ios-arrow-back-6" data-name="Icon ionic-ios-arrow-back" d="M1.584,4.595,5.063,1.12a.657.657,0,1,0-.93-.928L.191,4.13a.656.656,0,0,0-.019.906L4.129,9a.657.657,0,0,0,.93-.928Z" transform="translate(2258.399 9648.398) rotate(90)" fill="#041129"/>
    <text id="tf" transform="translate(2262.161 9627.898)" fill="#041129" stroke="rgba(0,0,0,0)" stroke-width="1" font-size="16" font-family="Jura" font-weight="700"><tspan x="0" y="15">tf</tspan></text>
    <line id="Línea_58" data-name="Línea 58" y2="50.601" transform="translate(2253.623 9600.898)" fill="none" stroke="#041129" stroke-width="1"/>
    <path id="Icon_ionic-ios-arrow-back-7" data-name="Icon ionic-ios-arrow-back" d="M1.584,4.595,5.063,1.12a.657.657,0,1,0-.93-.928L.191,4.13a.656.656,0,0,0-.019.906L4.129,9a.657.657,0,0,0,.93-.928Z" transform="translate(2249.207 9624.898) rotate(-90)" fill="#041129"/>
    <line id="Línea_60" data-name="Línea 60" x1="22.941" transform="translate(2253.623 9672.84) rotate(-90)" fill="none" stroke="#041129" stroke-width="1"/>
    <line id="Línea_62" data-name="Línea 62" x2="126.788" transform="translate(2106.937 9609.322)" fill="none" stroke="#041129" stroke-width="1"/>
    <path id="Icon_ionic-ios-arrow-back-8" data-name="Icon ionic-ios-arrow-back" d="M1.877,4.6,6,1.12A.585.585,0,0,0,6,.192a.887.887,0,0,0-1.1,0L.227,4.13A.585.585,0,0,0,.2,5.036L4.891,9a.888.888,0,0,0,1.1,0,.585.585,0,0,0,0-.928Z" transform="translate(2234.979 9613.739) rotate(180)" fill="#041129"/>
    <text id="bf" transform="translate(2161 9587)" fill="#041129" stroke="rgba(0,0,0,0)" stroke-width="1" font-size="16" font-family="Jura" font-weight="700"><tspan x="0" y="15">bf</tspan></text>
  </g>
</svg>
