<svg xmlns="http://www.w3.org/2000/svg" width="29.883" height="26.562" viewBox="0 0 29.883 26.562">
  <path id="Icon_awesome-hand-holding-heart" data-name="Icon awesome-hand-holding-heart" d="M14.282,12.995a.9.9,0,0,0,1.323,0L21.254,7.07A4.3,4.3,0,0,0,20.963.907a3.943,3.943,0,0,0-5.442.4l-.581.607-.576-.6a3.939,3.939,0,0,0-5.442-.4A4.3,4.3,0,0,0,8.632,7.07ZM29.326,17.02a1.717,1.717,0,0,0-2.21,0l-4.793,3.834a3.3,3.3,0,0,1-2.075.726H14.11a.83.83,0,0,1,0-1.66h4.062A1.727,1.727,0,0,0,19.9,18.54,1.662,1.662,0,0,0,18.26,16.6H9.96a6.106,6.106,0,0,0-3.844,1.364L3.7,19.92H.83a.832.832,0,0,0-.83.83v4.98a.832.832,0,0,0,.83.83H19.339a3.324,3.324,0,0,0,2.075-.726l7.844-6.277A1.659,1.659,0,0,0,29.326,17.02Z" transform="translate(0 0.002)" fill="#c21220"/>
</svg>
